<svg width="12" height="22" viewBox="0 0 12 22" fill="none" xmlns="http://www.w3.org/2000/svg">
<path d="M11.7073 20.2921C11.8002 20.385 11.8739 20.4953 11.9242 20.6167C11.9745 20.7381 12.0004 20.8682 12.0004 20.9996C12.0004 21.131 11.9745 21.2611 11.9242 21.3825C11.8739 21.5039 11.8002 21.6142 11.7073 21.7071C11.6144 21.8 11.5041 21.8737 11.3827 21.924C11.2613 21.9743 11.1312 22.0001 10.9998 22.0001C10.8684 22.0001 10.7383 21.9743 10.6169 21.924C10.4955 21.8737 10.3852 21.8 10.2923 21.7071L0.29231 11.7071C0.199333 11.6142 0.125575 11.5039 0.0752506 11.3825C0.0249263 11.2611 -0.000976562 11.131 -0.000976562 10.9996C-0.000976562 10.8682 0.0249263 10.738 0.0752506 10.6166C0.125575 10.4952 0.199333 10.385 0.29231 10.2921L10.2923 0.292079C10.4799 0.104439 10.7344 -0.000976568 10.9998 -0.000976562C11.2652 -0.000976557 11.5197 0.104439 11.7073 0.292079C11.895 0.47972 12.0004 0.734215 12.0004 0.999579C12.0004 1.26494 11.895 1.51944 11.7073 1.70708L2.41356 10.9996L11.7073 20.2921Z" fill="#595959"/>
</svg>
