<svg width="12" height="22" viewBox="0 0 12 22" fill="none" xmlns="http://www.w3.org/2000/svg">
<path d="M11.7076 11.7071L1.70757 21.7071C1.61466 21.8 1.50436 21.8737 1.38296 21.924C1.26157 21.9743 1.13146 22.0001 1.00007 22.0001C0.868673 22.0001 0.738564 21.9743 0.617171 21.924C0.495778 21.8737 0.385477 21.8 0.292567 21.7071C0.199657 21.6142 0.125957 21.5039 0.0756741 21.3825C0.0253914 21.2611 -0.000488281 21.131 -0.000488281 20.9996C-0.000488281 20.8682 0.0253914 20.7381 0.0756741 20.6167C0.125957 20.4953 0.199657 20.385 0.292567 20.2921L9.58632 10.9996L0.292567 1.70708C0.104927 1.51944 -0.000488283 1.26494 -0.000488281 0.999579C-0.000488279 0.734215 0.104927 0.47972 0.292567 0.292079C0.480208 0.104439 0.734704 -0.000976561 1.00007 -0.000976562C1.26543 -0.000976564 1.51993 0.104439 1.70757 0.292079L11.7076 10.2921C11.8005 10.385 11.8743 10.4952 11.9246 10.6166C11.975 10.738 12.0009 10.8682 12.0009 10.9996C12.0009 11.131 11.975 11.2611 11.9246 11.3825C11.8743 11.5039 11.8005 11.6142 11.7076 11.7071Z" fill="#595959"/>
</svg>
