<svg width="22" height="12" viewBox="0 0 22 12" fill="none" xmlns="http://www.w3.org/2000/svg">
<path d="M21.7071 11.7073C21.6142 11.8003 21.5039 11.874 21.3825 11.9244C21.2611 11.9747 21.131 12.0006 20.9996 12.0006C20.8682 12.0006 20.738 11.9747 20.6166 11.9244C20.4952 11.874 20.385 11.8003 20.2921 11.7073L10.9996 2.41356L1.70708 11.7073C1.51944 11.895 1.26494 12.0004 0.999579 12.0004C0.734215 12.0004 0.47972 11.895 0.292079 11.7073C0.104439 11.5197 -0.000976557 11.2652 -0.000976562 10.9998C-0.000976568 10.7344 0.104439 10.4799 0.292079 10.2923L10.2921 0.29231C10.385 0.199333 10.4952 0.125575 10.6166 0.0752506C10.738 0.0249263 10.8682 -0.000976562 10.9996 -0.000976562C11.131 -0.000976562 11.2611 0.0249263 11.3825 0.0752506C11.5039 0.125575 11.6142 0.199333 11.7071 0.29231L21.7071 10.2923C21.8001 10.3852 21.8738 10.4955 21.9241 10.6169C21.9745 10.7383 22.0004 10.8684 22.0004 10.9998C22.0004 11.1312 21.9745 11.2614 21.9241 11.3828C21.8738 11.5041 21.8001 11.6144 21.7071 11.7073Z" fill="#595959"/>
</svg>
