<svg width="29" height="25" viewBox="0 0 29 25" fill="none" xmlns="http://www.w3.org/2000/svg">
<path d="M28.9861 22.765L27.2036 7.765C27.1458 7.27627 26.9098 6.82602 26.5408 6.50039C26.1718 6.17475 25.6957 5.99659 25.2036 6H20.9998C20.9998 4.4087 20.3677 2.88258 19.2425 1.75736C18.1173 0.632141 16.5911 0 14.9998 0C13.4085 0 11.8824 0.632141 10.7572 1.75736C9.63198 2.88258 8.99984 4.4087 8.99984 6H4.79109C4.29897 5.99659 3.82287 6.17475 3.45388 6.50039C3.08488 6.82602 2.84891 7.27627 2.79109 7.765L1.00859 22.765C0.975928 23.045 1.00281 23.3287 1.08747 23.5975C1.17213 23.8664 1.31266 24.1143 1.49984 24.325C1.68838 24.5366 1.91942 24.7061 2.17788 24.8224C2.43634 24.9387 2.71642 24.9992 2.99984 25H26.9898C27.275 25.0006 27.557 24.9408 27.8172 24.8245C28.0775 24.7081 28.3102 24.5379 28.4998 24.325C28.6861 24.1139 28.8258 23.8658 28.9096 23.5969C28.9933 23.3281 29.0194 23.0446 28.9861 22.765ZM14.9998 2C16.0607 2 17.0781 2.42143 17.8283 3.17157C18.5784 3.92172 18.9998 4.93913 18.9998 6H10.9998C10.9998 4.93913 11.4213 3.92172 12.1714 3.17157C12.9216 2.42143 13.939 2 14.9998 2ZM2.99984 23L4.79109 8H8.99984V11C8.99984 11.2652 9.1052 11.5196 9.29274 11.7071C9.48027 11.8946 9.73463 12 9.99984 12C10.2651 12 10.5194 11.8946 10.707 11.7071C10.8945 11.5196 10.9998 11.2652 10.9998 11V8H18.9998V11C18.9998 11.2652 19.1052 11.5196 19.2927 11.7071C19.4803 11.8946 19.7346 12 19.9998 12C20.2651 12 20.5194 11.8946 20.707 11.7071C20.8945 11.5196 20.9998 11.2652 20.9998 11V8H25.2186L26.9898 23H2.99984Z" fill="#595959"/>
</svg>
