<svg width="31" height="46" viewBox="0 0 31 46" fill="none" xmlns="http://www.w3.org/2000/svg">
<path d="M28.2253 13.3923L20.6948 1.05919C20.5261 0.782875 20.2725 0.568568 19.9719 0.448283C19.6713 0.327998 19.3399 0.308192 19.0271 0.391825L1.68032 5.03989C1.36765 5.12385 1.09052 5.30671 0.890354 5.56117C0.690186 5.81563 0.57772 6.12803 0.569757 6.45168L0.214685 20.8977C0.145985 23.1157 0.698908 25.3087 1.81099 27.2291C2.92307 29.1494 4.55 30.7204 6.50798 31.7648C9.73076 33.49 13.4379 34.088 17.0397 33.4637L18.9988 40.7752L13.2032 42.3281C12.819 42.4311 12.4913 42.6825 12.2924 43.027C12.0935 43.3715 12.0396 43.781 12.1426 44.1652C12.2455 44.5495 12.4969 44.8771 12.8415 45.076C13.186 45.2749 13.5954 45.3288 13.9797 45.2259L28.4686 41.3436C28.8528 41.2406 29.1805 40.9892 29.3794 40.6447C29.5783 40.3002 29.6322 39.8907 29.5292 39.5065C29.4263 39.1222 29.1749 38.7946 28.8303 38.5957C28.4858 38.3968 28.0764 38.3429 27.6921 38.4458L21.8966 39.9987L19.9375 32.6873C23.3687 31.4268 26.2801 29.0554 28.2087 25.9501C29.3822 24.0667 30.0056 21.8926 30.0086 19.6735C30.0115 17.4545 29.3938 15.2788 28.2253 13.3923ZM3.53983 7.64747L18.7206 3.5798L25.6682 14.9548C25.6991 15.0048 25.7281 15.0552 25.7572 15.1057C22.2505 17.5361 17.4317 17.0259 14.7393 16.4604C9.55833 15.3737 5.8575 16.0508 3.30452 17.2085L3.53983 7.64747ZM25.6655 24.3623C23.8632 27.2598 21.0265 29.3634 17.7305 30.2465C14.4346 31.1297 10.9261 30.7263 7.91661 29.1181C6.45076 28.3341 5.23331 27.1559 4.40171 25.7165C3.57012 24.2771 3.15751 22.6339 3.21047 20.9724L3.2182 20.6752C5.19451 19.3576 8.59589 18.2366 14.121 19.398C16.4146 19.8802 20.0258 20.3102 23.5158 19.375C24.6838 19.0682 25.8028 18.5984 26.8398 17.9797C27.2707 20.1792 26.851 22.4602 25.6655 24.3623Z" fill="#121212"/>
</svg>
