<svg width="31" height="46" viewBox="0 0 31 46" fill="none" xmlns="http://www.w3.org/2000/svg">
<path d="M30.5738 20.8966L30.2188 6.45063C30.2108 6.12697 30.0983 5.81458 29.8982 5.56012C29.698 5.30566 29.4209 5.1228 29.1082 5.03884L11.7614 0.390774C11.4486 0.307142 11.1172 0.326947 10.8166 0.447232C10.516 0.567517 10.2624 0.781824 10.0937 1.05814L2.5632 13.3912C1.39469 15.2777 0.777019 17.4534 0.779954 19.6725C0.782889 21.8916 1.40632 24.0656 2.57981 25.949C4.5082 29.0545 7.41965 31.426 10.8511 32.6862L8.89196 39.9977L3.0964 38.4448C2.71213 38.3418 2.3027 38.3957 1.95817 38.5946C1.61365 38.7935 1.36225 39.1212 1.25929 39.5054C1.15632 39.8897 1.21022 40.2991 1.40914 40.6437C1.60805 40.9882 1.93568 41.2396 2.31995 41.3425L16.8088 45.2248C17.1931 45.3278 17.6025 45.2739 17.9471 45.075C18.2916 44.8761 18.543 44.5484 18.6459 44.1642C18.7489 43.7799 18.695 43.3705 18.4961 43.0259C18.2972 42.6814 17.9696 42.43 17.5853 42.3271L11.7897 40.7741L13.7488 33.4627C17.3506 34.0867 21.0577 33.4887 24.2805 31.7637C26.2385 30.7194 27.8654 29.1483 28.9775 27.228C30.0896 25.3077 30.6425 23.1147 30.5738 20.8966ZM12.068 3.57875L27.2487 7.64642L27.5781 20.9713C27.5798 21.03 27.5797 21.0882 27.5797 21.1465C23.3276 21.4979 19.4095 18.6467 17.3605 16.8107C13.4171 13.2791 9.87345 12.0151 7.08365 11.7412L12.068 3.57875ZM22.8719 29.1171C19.8624 30.7252 16.3539 31.1286 13.058 30.2455C9.76202 29.3623 6.92529 27.2587 5.12303 24.3613C4.24559 22.9494 3.78036 21.3203 3.77987 19.6579C3.77938 17.9956 4.24366 16.3662 5.12028 14.9538L5.27554 14.7003C7.6459 14.5474 11.1521 15.2772 15.3563 19.0456C17.1015 20.61 20.0139 22.788 23.5039 23.7231C24.6688 24.0413 25.8727 24.194 27.0802 24.1767C26.3537 26.297 24.8497 28.0626 22.8719 29.1171Z" fill="#121212"/>
</svg>
