<svg width="30" height="30" viewBox="0 0 30 30" fill="none" xmlns="http://www.w3.org/2000/svg">
<path d="M15 0.375C12.1075 0.375 9.27986 1.23274 6.87479 2.83976C4.46972 4.44677 2.5952 6.73089 1.48827 9.40325C0.381337 12.0756 0.091713 15.0162 0.656022 17.8532C1.22033 20.6902 2.61323 23.2961 4.65857 25.3414C6.70391 27.3868 9.30984 28.7797 12.1468 29.344C14.9838 29.9083 17.9244 29.6187 20.5968 28.5117C23.2691 27.4048 25.5532 25.5303 27.1602 23.1252C28.7673 20.7201 29.625 17.8926 29.625 15C29.6209 11.1225 28.0788 7.40492 25.3369 4.66309C22.5951 1.92125 18.8775 0.379095 15 0.375ZM16.125 27.323V18.375H19.5C19.7984 18.375 20.0845 18.2565 20.2955 18.0455C20.5065 17.8345 20.625 17.5484 20.625 17.25C20.625 16.9516 20.5065 16.6655 20.2955 16.4545C20.0845 16.2435 19.7984 16.125 19.5 16.125H16.125V12.75C16.125 12.1533 16.3621 11.581 16.784 11.159C17.206 10.7371 17.7783 10.5 18.375 10.5H20.625C20.9234 10.5 21.2095 10.3815 21.4205 10.1705C21.6315 9.95952 21.75 9.67337 21.75 9.375C21.75 9.07663 21.6315 8.79048 21.4205 8.5795C21.2095 8.36853 20.9234 8.25 20.625 8.25H18.375C17.1815 8.25 16.0369 8.72411 15.193 9.56802C14.3491 10.4119 13.875 11.5565 13.875 12.75V16.125H10.5C10.2016 16.125 9.91549 16.2435 9.70451 16.4545C9.49353 16.6655 9.37501 16.9516 9.37501 17.25C9.37501 17.5484 9.49353 17.8345 9.70451 18.0455C9.91549 18.2565 10.2016 18.375 10.5 18.375H13.875V27.323C10.7036 27.0335 7.76592 25.5325 5.67297 23.1323C3.58001 20.7321 2.49292 17.6174 2.63782 14.4361C2.78273 11.2549 4.14847 8.2519 6.45096 6.0519C8.75345 3.8519 11.8154 2.62421 15 2.62421C18.1846 2.62421 21.2466 3.8519 23.5491 6.0519C25.8515 8.2519 27.2173 11.2549 27.3622 14.4361C27.5071 17.6174 26.42 20.7321 24.327 23.1323C22.2341 25.5325 19.2964 27.0335 16.125 27.323Z" fill="#595959"/>
</svg>
