<svg width="86" height="43" viewBox="0 0 86 43" fill="none" xmlns="http://www.w3.org/2000/svg">
<path d="M20.7991 1.5H1V21.708M20.7991 1.5H42.3504M20.7991 1.5V21.708M42.3504 1.5H84.3433V21.708M42.3504 1.5V41.916M42.3504 41.916H22.084H1V21.708M42.3504 41.916H84.3433V21.708M84.3433 21.708H20.7991M20.7991 21.708H1" stroke="#232323" stroke-width="1.40171"/>
<path fill-rule="evenodd" clip-rule="evenodd" d="M34.5893 7.31925C34.5893 8.1462 33.9161 8.81657 33.0857 8.81657C32.2554 8.81657 31.5822 8.1462 31.5822 7.31925C31.5822 6.49231 32.2554 5.82194 33.0857 5.82194C33.9161 5.82194 34.5893 6.49231 34.5893 7.31925ZM33.0857 8.3032C33.6314 8.3032 34.0738 7.86267 34.0738 7.31925C34.0738 6.77583 33.6314 6.3353 33.0857 6.3353C32.5401 6.3353 32.0977 6.77583 32.0977 7.31925C32.0977 7.86267 32.5401 8.3032 33.0857 8.3032Z" fill="#232323"/>
<path fill-rule="evenodd" clip-rule="evenodd" d="M34.5893 14.5064C34.5893 15.3333 33.9161 16.0037 33.0857 16.0037C32.2554 16.0037 31.5822 15.3333 31.5822 14.5064C31.5822 13.6794 32.2554 13.009 33.0857 13.009C33.9161 13.009 34.5893 13.6794 34.5893 14.5064ZM33.0857 15.4903C33.6314 15.4903 34.0738 15.0498 34.0738 14.5064C34.0738 13.9629 33.6314 13.5224 33.0857 13.5224C32.5401 13.5224 32.0977 13.9629 32.0977 14.5064C32.0977 15.0498 32.5401 15.4903 33.0857 15.4903Z" fill="#232323"/>
<path fill-rule="evenodd" clip-rule="evenodd" d="M30.8949 7.31925C30.8949 8.1462 30.2217 8.81657 29.3913 8.81657C28.5609 8.81657 27.8877 8.1462 27.8877 7.31925C27.8877 6.49231 28.5609 5.82194 29.3913 5.82194C30.2217 5.82194 30.8949 6.49231 30.8949 7.31925ZM29.3913 8.3032C29.937 8.3032 30.3793 7.86267 30.3793 7.31925C30.3793 6.77583 29.937 6.3353 29.3913 6.3353C28.8456 6.3353 28.4032 6.77583 28.4032 7.31925C28.4032 7.86267 28.8456 8.3032 29.3913 8.3032Z" fill="#232323"/>
<path fill-rule="evenodd" clip-rule="evenodd" d="M30.8949 14.5064C30.8949 15.3333 30.2217 16.0037 29.3913 16.0037C28.5609 16.0037 27.8877 15.3333 27.8877 14.5064C27.8877 13.6794 28.5609 13.009 29.3913 13.009C30.2217 13.009 30.8949 13.6794 30.8949 14.5064ZM29.3913 15.4903C29.937 15.4903 30.3793 15.0498 30.3793 14.5064C30.3793 13.9629 29.937 13.5224 29.3913 13.5224C28.8456 13.5224 28.4032 13.9629 28.4032 14.5064C28.4032 15.0498 28.8456 15.4903 29.3913 15.4903Z" fill="#232323"/>
<path fill-rule="evenodd" clip-rule="evenodd" d="M32.6991 10.9128C32.6991 11.7397 32.026 12.4101 31.1956 12.4101C30.3652 12.4101 29.692 11.7397 29.692 10.9128C29.692 10.0859 30.3652 9.41549 31.1956 9.41549C32.026 9.41549 32.6991 10.0859 32.6991 10.9128ZM31.1956 11.8968C31.7412 11.8968 32.1836 11.4562 32.1836 10.9128C32.1836 10.3694 31.7412 9.92886 31.1956 9.92886C30.6499 9.92886 30.2075 10.3694 30.2075 10.9128C30.2075 11.4562 30.6499 11.8968 31.1956 11.8968Z" fill="#232323"/>
<path fill-rule="evenodd" clip-rule="evenodd" d="M29.0047 10.9128C29.0047 11.7397 28.3315 12.4101 27.5011 12.4101C26.6707 12.4101 25.9976 11.7397 25.9976 10.9128C25.9976 10.0859 26.6707 9.41549 27.5011 9.41549C28.3315 9.41549 29.0047 10.0859 29.0047 10.9128ZM27.5011 11.8968C28.0468 11.8968 28.4892 11.4562 28.4892 10.9128C28.4892 10.3694 28.0468 9.92886 27.5011 9.92886C26.9554 9.92886 26.5131 10.3694 26.5131 10.9128C26.5131 11.4562 26.9554 11.8968 27.5011 11.8968Z" fill="#232323"/>
<path fill-rule="evenodd" clip-rule="evenodd" d="M36.3936 10.9128C36.3936 11.7397 35.7204 12.4101 34.89 12.4101C34.0596 12.4101 33.3865 11.7397 33.3865 10.9128C33.3865 10.0859 34.0596 9.41549 34.89 9.41549C35.7204 9.41549 36.3936 10.0859 36.3936 10.9128ZM34.89 11.8968C35.4357 11.8968 35.8781 11.4562 35.8781 10.9128C35.8781 10.3694 35.4357 9.92886 34.89 9.92886C34.3443 9.92886 33.902 10.3694 33.902 10.9128C33.902 11.4562 34.3443 11.8968 34.89 11.8968Z" fill="#232323"/>
<path fill-rule="evenodd" clip-rule="evenodd" d="M32.6991 17.7577C32.6991 18.5846 32.026 19.255 31.1956 19.255C30.3652 19.255 29.692 18.5846 29.692 17.7577C29.692 16.9307 30.3652 16.2604 31.1956 16.2604C32.026 16.2604 32.6991 16.9307 32.6991 17.7577ZM31.1956 18.7416C31.7412 18.7416 32.1836 18.3011 32.1836 17.7577C32.1836 17.2142 31.7412 16.7737 31.1956 16.7737C30.6499 16.7737 30.2075 17.2142 30.2075 17.7577C30.2075 18.3011 30.6499 18.7416 31.1956 18.7416Z" fill="#232323"/>
<path d="M31.1527 6.05556L30.5531 1.5H31.838L31.1527 6.05556Z" fill="#232323"/>
<path fill-rule="evenodd" clip-rule="evenodd" d="M34.5893 7.31925C34.5893 8.1462 33.9161 8.81657 33.0857 8.81657C32.2554 8.81657 31.5822 8.1462 31.5822 7.31925C31.5822 6.49231 32.2554 5.82194 33.0857 5.82194C33.9161 5.82194 34.5893 6.49231 34.5893 7.31925ZM33.0857 8.3032C33.6314 8.3032 34.0738 7.86267 34.0738 7.31925C34.0738 6.77583 33.6314 6.3353 33.0857 6.3353C32.5401 6.3353 32.0977 6.77583 32.0977 7.31925C32.0977 7.86267 32.5401 8.3032 33.0857 8.3032Z" stroke="#232323" stroke-width="0.467236"/>
<path fill-rule="evenodd" clip-rule="evenodd" d="M34.5893 14.5064C34.5893 15.3333 33.9161 16.0037 33.0857 16.0037C32.2554 16.0037 31.5822 15.3333 31.5822 14.5064C31.5822 13.6794 32.2554 13.009 33.0857 13.009C33.9161 13.009 34.5893 13.6794 34.5893 14.5064ZM33.0857 15.4903C33.6314 15.4903 34.0738 15.0498 34.0738 14.5064C34.0738 13.9629 33.6314 13.5224 33.0857 13.5224C32.5401 13.5224 32.0977 13.9629 32.0977 14.5064C32.0977 15.0498 32.5401 15.4903 33.0857 15.4903Z" stroke="#232323" stroke-width="0.467236"/>
<path fill-rule="evenodd" clip-rule="evenodd" d="M30.8949 7.31925C30.8949 8.1462 30.2217 8.81657 29.3913 8.81657C28.5609 8.81657 27.8877 8.1462 27.8877 7.31925C27.8877 6.49231 28.5609 5.82194 29.3913 5.82194C30.2217 5.82194 30.8949 6.49231 30.8949 7.31925ZM29.3913 8.3032C29.937 8.3032 30.3793 7.86267 30.3793 7.31925C30.3793 6.77583 29.937 6.3353 29.3913 6.3353C28.8456 6.3353 28.4032 6.77583 28.4032 7.31925C28.4032 7.86267 28.8456 8.3032 29.3913 8.3032Z" stroke="#232323" stroke-width="0.467236"/>
<path fill-rule="evenodd" clip-rule="evenodd" d="M30.8949 14.5064C30.8949 15.3333 30.2217 16.0037 29.3913 16.0037C28.5609 16.0037 27.8877 15.3333 27.8877 14.5064C27.8877 13.6794 28.5609 13.009 29.3913 13.009C30.2217 13.009 30.8949 13.6794 30.8949 14.5064ZM29.3913 15.4903C29.937 15.4903 30.3793 15.0498 30.3793 14.5064C30.3793 13.9629 29.937 13.5224 29.3913 13.5224C28.8456 13.5224 28.4032 13.9629 28.4032 14.5064C28.4032 15.0498 28.8456 15.4903 29.3913 15.4903Z" stroke="#232323" stroke-width="0.467236"/>
<path fill-rule="evenodd" clip-rule="evenodd" d="M32.6991 10.9128C32.6991 11.7397 32.026 12.4101 31.1956 12.4101C30.3652 12.4101 29.692 11.7397 29.692 10.9128C29.692 10.0859 30.3652 9.41549 31.1956 9.41549C32.026 9.41549 32.6991 10.0859 32.6991 10.9128ZM31.1956 11.8968C31.7412 11.8968 32.1836 11.4562 32.1836 10.9128C32.1836 10.3694 31.7412 9.92886 31.1956 9.92886C30.6499 9.92886 30.2075 10.3694 30.2075 10.9128C30.2075 11.4562 30.6499 11.8968 31.1956 11.8968Z" stroke="#232323" stroke-width="0.467236"/>
<path fill-rule="evenodd" clip-rule="evenodd" d="M29.0047 10.9128C29.0047 11.7397 28.3315 12.4101 27.5011 12.4101C26.6707 12.4101 25.9976 11.7397 25.9976 10.9128C25.9976 10.0859 26.6707 9.41549 27.5011 9.41549C28.3315 9.41549 29.0047 10.0859 29.0047 10.9128ZM27.5011 11.8968C28.0468 11.8968 28.4892 11.4562 28.4892 10.9128C28.4892 10.3694 28.0468 9.92886 27.5011 9.92886C26.9554 9.92886 26.5131 10.3694 26.5131 10.9128C26.5131 11.4562 26.9554 11.8968 27.5011 11.8968Z" stroke="#232323" stroke-width="0.467236"/>
<path fill-rule="evenodd" clip-rule="evenodd" d="M36.3936 10.9128C36.3936 11.7397 35.7204 12.4101 34.89 12.4101C34.0596 12.4101 33.3865 11.7397 33.3865 10.9128C33.3865 10.0859 34.0596 9.41549 34.89 9.41549C35.7204 9.41549 36.3936 10.0859 36.3936 10.9128ZM34.89 11.8968C35.4357 11.8968 35.8781 11.4562 35.8781 10.9128C35.8781 10.3694 35.4357 9.92886 34.89 9.92886C34.3443 9.92886 33.902 10.3694 33.902 10.9128C33.902 11.4562 34.3443 11.8968 34.89 11.8968Z" stroke="#232323" stroke-width="0.467236"/>
<path fill-rule="evenodd" clip-rule="evenodd" d="M32.6991 17.7577C32.6991 18.5846 32.026 19.255 31.1956 19.255C30.3652 19.255 29.692 18.5846 29.692 17.7577C29.692 16.9307 30.3652 16.2604 31.1956 16.2604C32.026 16.2604 32.6991 16.9307 32.6991 17.7577ZM31.1956 18.7416C31.7412 18.7416 32.1836 18.3011 32.1836 17.7577C32.1836 17.2142 31.7412 16.7737 31.1956 16.7737C30.6499 16.7737 30.2075 17.2142 30.2075 17.7577C30.2075 18.3011 30.6499 18.7416 31.1956 18.7416Z" stroke="#232323" stroke-width="0.467236"/>
<path d="M31.1527 6.05556L30.5531 1.5H31.838L31.1527 6.05556Z" stroke="#232323" stroke-width="0.467236"/>
<path d="M6.6531 10.9018C7.58021 9.13193 9.43469 7.92433 11.5712 7.92433C13.7111 7.92433 15.5681 9.13573 16.4937 10.9102C16.8431 10.8111 17.1893 10.7197 17.5316 10.6354C16.4706 8.41051 14.2004 6.87305 11.5712 6.87305C8.94679 6.87305 6.68015 8.40492 5.61665 10.6233C5.95384 10.7076 6.29972 10.8002 6.6531 10.9018Z" fill="#232323"/>
<path d="M1.11681 9.91427V10.8676C2.20441 10.9394 3.62732 11.1516 5.25264 11.561C5.35047 11.2372 5.47251 10.924 5.61665 10.6233C3.80522 10.1705 2.24452 9.95991 1.11681 9.91427Z" fill="#232323"/>
<path d="M6.6531 10.9018C6.29972 10.8002 5.95384 10.7076 5.61665 10.6233C5.47251 10.924 5.35047 11.2372 5.25264 11.561C5.58318 11.6443 5.92208 11.7357 6.26824 11.8357C6.36847 11.5107 6.49777 11.1983 6.6531 10.9018Z" fill="#232323"/>
<path d="M10.4433 13.3655C10.8265 13.157 11.2105 12.9597 11.5944 12.773C9.86967 11.9537 8.19032 11.3436 6.6531 10.9018C6.49777 11.1983 6.36847 11.5107 6.26824 11.8357C7.57646 12.2138 8.98827 12.7152 10.4433 13.3655Z" fill="#232323"/>
<path d="M11.6114 13.9161C12 13.7215 12.3888 13.5379 12.7769 13.3649C12.3812 13.1564 11.9866 12.9593 11.5944 12.773C11.2105 12.9597 10.8265 13.157 10.4433 13.3655C10.83 13.5383 11.2198 13.7217 11.6114 13.9161Z" fill="#232323"/>
<path d="M16.1196 16.6512C16.3141 16.3734 16.4838 16.0769 16.6255 15.765C15.3558 14.8352 14.06 14.0406 12.7769 13.3649C12.3888 13.5379 12 13.7215 11.6114 13.9161C13.1071 14.6583 14.6309 15.5611 16.1196 16.6512Z" fill="#232323"/>
<path d="M16.9572 17.2878C17.153 17.0119 17.3282 16.7202 17.4804 16.4151C17.197 16.1914 16.9119 15.9748 16.6255 15.765C16.4838 16.0769 16.3141 16.3734 16.1196 16.6512C16.4002 16.8567 16.6795 17.0688 16.9572 17.2878Z" fill="#232323"/>
<path d="M20.5655 20.6752V19.2357C19.5776 18.1897 18.5414 17.2528 17.4804 16.4151C17.3282 16.7202 17.153 17.0119 16.9572 17.2878C18.2066 18.273 19.4222 19.3967 20.5655 20.6752Z" fill="#232323"/>
<path d="M12.5316 21.6494H14.2863C13.5211 21.0682 12.7429 20.5402 11.9601 20.0612C11.8314 20.0687 11.7018 20.0725 11.5712 20.0725C9.40147 20.0725 7.47627 19.0254 6.27334 17.409C6.25995 17.391 6.24664 17.3729 6.23342 17.3548C4.3909 16.7098 2.64444 16.2943 1.11681 16.0462V17.0782C4.38644 17.6586 8.56474 18.9935 12.5316 21.6494Z" fill="#232323"/>
<path d="M11.5712 20.0725C11.7018 20.0725 11.8314 20.0687 11.9601 20.0612C10.0628 18.9003 8.1385 18.027 6.30719 17.3807C6.2959 17.3901 6.28462 17.3996 6.27334 17.409C7.47627 19.0254 9.40147 20.0725 11.5712 20.0725Z" fill="#232323"/>
<path d="M20.5655 10.0478C19.6048 10.1841 18.5867 10.3757 17.5316 10.6354C17.6815 10.9497 17.8072 11.2777 17.9065 11.617C18.8258 11.3927 19.7166 11.22 20.5655 11.0905V10.0478Z" fill="#232323"/>
<path d="M17.5316 10.6354C17.1893 10.7197 16.8431 10.8111 16.4937 10.9102C16.6547 11.2188 16.7875 11.5445 16.8888 11.8838C17.2314 11.7877 17.5708 11.6989 17.9065 11.617C17.8072 11.2777 17.6815 10.9497 17.5316 10.6354Z" fill="#232323"/>
<path d="M16.4937 10.9102C14.9051 11.3604 13.2503 11.9677 11.5944 12.773C11.9866 12.9593 12.3812 13.1564 12.7769 13.3649C14.1694 12.744 15.553 12.2584 16.8888 11.8838C16.7875 11.5445 16.6547 11.2188 16.4937 10.9102Z" fill="#232323"/>
<path d="M11.5713 41.7989V29.826L21.8505 24.3359L32.2465 29.826V36.3381M32.2465 41.9741V36.3381M32.2465 36.3381L37.4445 33.155L42.4673 36.3381" stroke="#232323" stroke-width="1.2849"/>
<path d="M32.1299 41.6819V29.7674L21.8507 24.2773L11.4547 29.7674V36.2795M11.4547 41.6819V36.2795M11.4547 36.2795L6.25666 33.0964L1.23387 36.2795" stroke="#232323" stroke-width="1.2849"/>
<rect x="19.3394" y="33.7383" width="5.1396" height="8.17664" stroke="#232323" stroke-width="1.16809"/>
<path d="M50.1225 17.4701C49.4796 17.4701 48.9787 17.3355 48.6199 17.0664C48.2685 16.7972 48.0218 16.4347 47.8798 15.9786C47.7452 15.5226 47.6779 15.0143 47.6779 14.4536V11.2465C47.6779 10.6335 47.7452 10.0989 47.8798 9.64292C48.0218 9.1869 48.2685 8.83553 48.6199 8.58883C48.9787 8.33466 49.4796 8.20757 50.1225 8.20757C50.6906 8.20757 51.1392 8.31223 51.4681 8.52155C51.8045 8.73087 52.0438 9.0299 52.1858 9.41864C52.3353 9.80739 52.4101 10.2746 52.4101 10.8204V11.538H51.2102V10.8989C51.2102 10.5624 51.1915 10.2671 51.1541 10.013C51.1242 9.75132 51.0345 9.54947 50.885 9.40743C50.7355 9.26539 50.4851 9.19437 50.1337 9.19437C49.7749 9.19437 49.5132 9.27287 49.3487 9.42986C49.1843 9.57937 49.0759 9.79617 49.0235 10.0803C48.9787 10.3569 48.9563 10.6821 48.9563 11.0558V14.6554C48.9563 15.1115 48.9936 15.474 49.0684 15.7432C49.1432 16.0048 49.2665 16.1917 49.4385 16.3038C49.6104 16.416 49.8421 16.472 50.1337 16.472C50.4776 16.472 50.7243 16.3973 50.8738 16.2478C51.0233 16.0908 51.1168 15.8777 51.1541 15.6086C51.1915 15.3395 51.2102 15.0255 51.2102 14.6666V13.9938H52.4101V14.6666C52.4101 15.2199 52.3428 15.7095 52.2082 16.1356C52.0737 16.5543 51.8419 16.8832 51.513 17.1224C51.184 17.3542 50.7205 17.4701 50.1225 17.4701ZM57.2841 17.4701C56.6711 17.4701 56.1814 17.3505 55.8151 17.1112C55.4488 16.872 55.1871 16.5319 55.0301 16.0908C54.8731 15.6422 54.7946 15.1189 54.7946 14.5209V11.0783C54.7946 10.4802 54.8731 9.96812 55.0301 9.542C55.1946 9.1084 55.4563 8.77947 55.8151 8.55519C56.1814 8.32344 56.6711 8.20757 57.2841 8.20757C57.8971 8.20757 58.383 8.32344 58.7419 8.55519C59.1007 8.78694 59.3586 9.11588 59.5156 9.542C59.6801 9.96812 59.7623 10.4802 59.7623 11.0783V14.5321C59.7623 15.1227 59.6801 15.6385 59.5156 16.0796C59.3586 16.5206 59.1007 16.8645 58.7419 17.1112C58.383 17.3505 57.8971 17.4701 57.2841 17.4701ZM57.2841 16.472C57.6205 16.472 57.8747 16.4048 58.0466 16.2702C58.2186 16.1282 58.3344 15.9338 58.3942 15.6871C58.454 15.4329 58.4839 15.1376 58.4839 14.8012V10.8204C58.4839 10.4839 58.454 10.1961 58.3942 9.9569C58.3344 9.7102 58.2186 9.52331 58.0466 9.39622C57.8747 9.26165 57.6205 9.19437 57.2841 9.19437C56.9477 9.19437 56.6898 9.26165 56.5103 9.39622C56.3384 9.52331 56.2225 9.7102 56.1627 9.9569C56.1029 10.1961 56.073 10.4839 56.073 10.8204V14.8012C56.073 15.1376 56.1029 15.4329 56.1627 15.6871C56.2225 15.9338 56.3384 16.1282 56.5103 16.2702C56.6898 16.4048 56.9477 16.472 57.2841 16.472ZM64.4952 17.4701C63.9719 17.4701 63.5345 17.3579 63.1832 17.1337C62.8393 16.9094 62.5776 16.5991 62.3982 16.2029C62.2188 15.8067 62.1141 15.3469 62.0842 14.8236L63.2056 14.5209C63.228 14.8423 63.2766 15.1526 63.3514 15.4516C63.4336 15.7506 63.5644 15.9973 63.7439 16.1917C63.9233 16.3786 64.1737 16.472 64.4952 16.472C64.8241 16.472 65.0708 16.3823 65.2353 16.2029C65.4072 16.016 65.4932 15.7506 65.4932 15.4067C65.4932 14.9956 65.3997 14.6666 65.2129 14.4199C65.026 14.1658 64.7905 13.9116 64.5064 13.6574L62.9813 12.3118C62.6823 12.0501 62.4618 11.766 62.3197 11.4595C62.1777 11.1456 62.1067 10.7605 62.1067 10.3045C62.1067 9.63918 62.2973 9.12335 62.6786 8.75704C63.0598 8.39072 63.5794 8.20757 64.2373 8.20757C64.5961 8.20757 64.9101 8.25616 65.1792 8.35335C65.4558 8.44306 65.6838 8.5851 65.8632 8.77947C66.0501 8.97384 66.1959 9.22054 66.3006 9.51957C66.4127 9.81112 66.4875 10.155 66.5249 10.5512L65.4483 10.8428C65.4259 10.5438 65.3811 10.2709 65.3138 10.0242C65.2465 9.77001 65.1269 9.56816 64.9549 9.41864C64.7905 9.26165 64.5512 9.18316 64.2373 9.18316C63.9233 9.18316 63.6766 9.26913 63.4972 9.44107C63.3252 9.60554 63.2392 9.85224 63.2392 10.1812C63.2392 10.4578 63.2841 10.6858 63.3738 10.8652C63.471 11.0446 63.6242 11.2278 63.8336 11.4147L65.3698 12.7603C65.7137 13.0594 66.0165 13.4182 66.2781 13.8368C66.5398 14.248 66.6706 14.7377 66.6706 15.3058C66.6706 15.7544 66.5772 16.1431 66.3903 16.472C66.2034 16.7935 65.9455 17.0402 65.6165 17.2121C65.2951 17.3841 64.9213 17.4701 64.4952 17.4701ZM69.9972 17.3691V9.22801H68.461V8.28606H72.7558V9.22801H71.2644V17.3691H69.9972ZM74.4618 17.3691L76.3905 8.28606H77.6128L79.5528 17.3691H78.3529L77.938 15.0816H76.0877L75.6504 17.3691H74.4618ZM76.256 14.1732H77.7698L77.0073 10.0803L76.256 14.1732Z" fill="#232323"/>
<path d="M49.0235 37.5771L47.5433 28.4941H48.5974L49.573 35.0204L50.7953 28.5277H51.6924L52.9259 35.0541L53.8791 28.4941H54.9107L53.4529 37.5771H52.5334L51.2663 30.8489L49.9879 37.5771H49.0235ZM57.4284 37.5771V28.4941H58.6731V37.5771H57.4284ZM61.4882 37.5771V28.4941H62.3517L64.9308 34.527V28.4941H65.9849V37.5771H65.1775L62.5648 31.376V37.5771H61.4882ZM68.7583 37.5771V28.4941H72.2794V29.436H70.0254V32.4413H71.8533V33.3384H70.0254V36.6688H72.3018V37.5771H68.7583Z" fill="#232323"/>
</svg>
