<svg width="78" height="60" viewBox="0 0 78 60" fill="none" xmlns="http://www.w3.org/2000/svg">
<g clip-path="url(#clip0_201_6474)">
<path d="M31.568 53.712C31.616 53.712 31.64 53.76 31.64 53.856C31.64 53.952 31.616 54 31.568 54C31.168 54 30.856 53.992 30.632 53.976L29.312 53.952L27.944 53.976C27.72 53.992 27.416 54 27.032 54C27 54 26.984 53.952 26.984 53.856C26.984 53.76 27 53.712 27.032 53.712C27.624 53.712 28.008 53.608 28.184 53.4C28.376 53.176 28.472 52.728 28.472 52.056V48.36C28.472 47.432 28.296 46.752 27.944 46.32C27.608 45.872 27.08 45.648 26.36 45.648C25.896 45.648 25.424 45.768 24.944 46.008C24.464 46.232 24.032 46.544 23.648 46.944V52.056C23.648 52.728 23.744 53.176 23.936 53.4C24.128 53.608 24.52 53.712 25.112 53.712C25.16 53.712 25.184 53.76 25.184 53.856C25.184 53.952 25.16 54 25.112 54C24.712 54 24.4 53.992 24.176 53.976L22.856 53.952L21.488 53.976C21.264 53.992 20.96 54 20.576 54C20.544 54 20.528 53.952 20.528 53.856C20.528 53.76 20.544 53.712 20.576 53.712C21.168 53.712 21.552 53.608 21.728 53.4C21.92 53.176 22.016 52.728 22.016 52.056V39.72C22.016 39.144 21.96 38.736 21.848 38.496C21.752 38.24 21.568 38.112 21.296 38.112C21.008 38.112 20.656 38.216 20.24 38.424H20.192C20.144 38.424 20.104 38.384 20.072 38.304C20.04 38.224 20.048 38.176 20.096 38.16L23.312 36.6H23.384C23.448 36.6 23.504 36.624 23.552 36.672C23.616 36.72 23.648 36.776 23.648 36.84V46.488C24.816 45.144 26.048 44.472 27.344 44.472C28.224 44.472 28.904 44.728 29.384 45.24C29.864 45.752 30.104 46.48 30.104 47.424V52.056C30.104 52.728 30.2 53.176 30.392 53.4C30.584 53.608 30.976 53.712 31.568 53.712ZM37.6389 54.312C36.6949 54.312 35.8629 54.088 35.1429 53.64C34.4229 53.176 33.8629 52.56 33.4629 51.792C33.0789 51.008 32.8869 50.16 32.8869 49.248C32.8869 48.208 33.1429 47.328 33.6549 46.608C34.1669 45.872 34.8229 45.328 35.6229 44.976C36.4229 44.608 37.2389 44.424 38.0709 44.424C39.0149 44.424 39.8469 44.656 40.5669 45.12C41.2869 45.584 41.8389 46.2 42.2229 46.968C42.6069 47.72 42.7989 48.52 42.7989 49.368C42.7989 50.344 42.5589 51.208 42.0789 51.96C41.6149 52.712 40.9909 53.296 40.2069 53.712C39.4229 54.112 38.5669 54.312 37.6389 54.312ZM38.3349 53.856C39.1349 53.856 39.7509 53.544 40.1829 52.92C40.6149 52.296 40.8309 51.36 40.8309 50.112C40.8309 49.072 40.6709 48.16 40.3509 47.376C40.0469 46.576 39.6229 45.968 39.0789 45.552C38.5349 45.12 37.9269 44.904 37.2549 44.904C36.4709 44.904 35.8629 45.208 35.4309 45.816C35.0149 46.408 34.8069 47.288 34.8069 48.456C34.8069 49.464 34.9589 50.384 35.2629 51.216C35.5669 52.032 35.9829 52.68 36.5109 53.16C37.0549 53.624 37.6629 53.856 38.3349 53.856ZM55.385 52.56C55.449 52.56 55.497 52.6 55.529 52.68C55.561 52.744 55.553 52.792 55.505 52.824L52.529 54.24C52.497 54.256 52.457 54.264 52.409 54.264C52.265 54.264 52.121 54.08 51.977 53.712C51.833 53.328 51.761 52.832 51.761 52.224C50.577 53.552 49.345 54.216 48.065 54.216C47.249 54.216 46.601 53.96 46.121 53.448C45.657 52.92 45.425 52.192 45.425 51.264V47.64C45.425 47.032 45.369 46.6 45.257 46.344C45.145 46.072 44.961 45.936 44.705 45.936C44.481 45.936 44.233 46 43.961 46.128H43.913C43.865 46.128 43.825 46.088 43.793 46.008C43.777 45.928 43.793 45.88 43.841 45.864L46.673 44.544L46.769 44.52C46.833 44.52 46.897 44.544 46.961 44.592C47.025 44.64 47.057 44.696 47.057 44.76V50.352C47.057 52.16 47.729 53.064 49.073 53.064C49.521 53.064 49.985 52.952 50.465 52.728C50.945 52.504 51.377 52.192 51.761 51.792V47.64C51.761 47.032 51.705 46.6 51.593 46.344C51.481 46.072 51.297 45.936 51.041 45.936C50.833 45.936 50.577 46 50.273 46.128H50.225C50.177 46.128 50.145 46.088 50.129 46.008C50.113 45.928 50.129 45.88 50.177 45.864L53.009 44.544L53.105 44.52C53.169 44.52 53.233 44.544 53.297 44.592C53.361 44.64 53.393 44.696 53.393 44.76V51.36C53.393 51.904 53.449 52.296 53.561 52.536C53.689 52.776 53.897 52.896 54.185 52.896C54.441 52.896 54.833 52.784 55.361 52.56H55.385ZM58.0987 46.104C58.0987 46.632 58.2747 47.064 58.6267 47.4C58.9947 47.736 59.5147 48.08 60.1867 48.432C60.7627 48.736 61.2027 49 61.5067 49.224C61.8267 49.432 62.0987 49.704 62.3227 50.04C62.5467 50.376 62.6587 50.792 62.6587 51.288C62.6587 52.104 62.3467 52.808 61.7227 53.4C61.1147 53.976 60.2747 54.264 59.2027 54.264C58.3707 54.264 57.5867 54.032 56.8507 53.568C56.7547 53.472 56.7067 53.376 56.7067 53.28L56.6587 51.24C56.6587 51.192 56.6987 51.168 56.7787 51.168C56.8747 51.152 56.9307 51.168 56.9467 51.216C57.2347 52.016 57.6347 52.648 58.1467 53.112C58.6747 53.576 59.2587 53.808 59.8987 53.808C60.3467 53.808 60.6907 53.696 60.9307 53.472C61.1867 53.248 61.3147 52.92 61.3147 52.488C61.3147 52.04 61.2187 51.664 61.0267 51.36C60.8347 51.04 60.5947 50.792 60.3067 50.616C60.0347 50.424 59.6587 50.2 59.1787 49.944C58.6507 49.688 58.2267 49.456 57.9067 49.248C57.6027 49.04 57.3387 48.768 57.1147 48.432C56.9067 48.096 56.8027 47.672 56.8027 47.16C56.8027 46.264 57.1307 45.592 57.7867 45.144C58.4427 44.68 59.2267 44.448 60.1387 44.448C60.7627 44.448 61.3707 44.568 61.9627 44.808C62.1067 44.856 62.1787 44.944 62.1787 45.072C62.1787 45.424 62.1707 45.696 62.1547 45.888L62.1307 46.968C62.1307 47 62.0827 47.016 61.9867 47.016C61.8907 47.016 61.8427 47 61.8427 46.968C61.8427 46.648 61.7147 46.328 61.4587 46.008C61.2027 45.688 60.8747 45.432 60.4747 45.24C60.0907 45.032 59.6987 44.928 59.2987 44.928C58.9307 44.928 58.6347 45.024 58.4107 45.216C58.2027 45.392 58.0987 45.688 58.0987 46.104ZM72.5681 52.584C72.6161 52.584 72.6561 52.616 72.6881 52.68C72.7361 52.728 72.7441 52.776 72.7121 52.824C72.1521 53.336 71.5761 53.712 70.9841 53.952C70.4081 54.176 69.7841 54.288 69.1121 54.288C68.1521 54.288 67.3201 54.08 66.6161 53.664C65.9281 53.232 65.4001 52.664 65.0321 51.96C64.6801 51.256 64.5041 50.496 64.5041 49.68C64.5041 48.736 64.7281 47.872 65.1761 47.088C65.6401 46.288 66.2721 45.664 67.0721 45.216C67.8881 44.752 68.7841 44.52 69.7601 44.52C70.6561 44.52 71.3521 44.736 71.8481 45.168C72.3441 45.584 72.5921 46.16 72.5921 46.896C72.5921 47.296 72.5041 47.496 72.3281 47.496H71.1761L66.4481 47.544C66.3841 47.864 66.3521 48.256 66.3521 48.72C66.3521 50.096 66.6801 51.208 67.3361 52.056C68.0081 52.904 68.9281 53.328 70.0961 53.328C71.0241 53.328 71.8401 53.08 72.5441 52.584H72.5681ZM68.9201 45C68.3281 45 67.8241 45.192 67.4081 45.576C66.9921 45.944 66.6961 46.472 66.5201 47.16L70.6481 47.064C70.6321 46.424 70.4721 45.92 70.1681 45.552C69.8641 45.184 69.4481 45 68.9201 45ZM75.9553 54.264C75.6033 54.264 75.3153 54.16 75.0913 53.952C74.8833 53.728 74.7793 53.44 74.7793 53.088C74.7793 52.736 74.8833 52.464 75.0913 52.272C75.2993 52.064 75.5873 51.96 75.9553 51.96C76.3233 51.96 76.6033 52.064 76.7953 52.272C77.0033 52.464 77.1073 52.736 77.1073 53.088C77.1073 53.456 77.0033 53.744 76.7953 53.952C76.6033 54.16 76.3233 54.264 75.9553 54.264Z" fill="#232323"/>
<rect x="20" y="24" width="2" height="22" fill="white"/>
<path d="M20.248 27.736C20.296 27.736 20.32 27.784 20.32 27.88C20.32 27.976 20.296 28.024 20.248 28.024C19.832 28.024 19.472 28.168 19.168 28.456C18.864 28.744 18.568 29.232 18.28 29.92L15.304 36.976C15.288 37.04 15.2 37.072 15.04 37.072C14.88 37.072 14.792 37.04 14.776 36.976L12.016 31.192L9.568 36.976C9.552 37.04 9.464 37.072 9.304 37.072C9.144 37.072 9.056 37.04 9.04 36.976L5.56 29.728C5.24 29.04 4.96 28.584 4.72 28.36C4.496 28.136 4.224 28.024 3.904 28.024C3.856 28.024 3.832 27.976 3.832 27.88C3.832 27.784 3.856 27.736 3.904 27.736C4.208 27.736 4.448 27.744 4.624 27.76L5.752 27.784L7.312 27.76C7.552 27.744 7.88 27.736 8.296 27.736C8.344 27.736 8.368 27.784 8.368 27.88C8.368 27.976 8.344 28.024 8.296 28.024C7.4 28.024 6.952 28.208 6.952 28.576C6.952 28.672 6.992 28.8 7.072 28.96L9.952 34.768L11.704 30.544L11.32 29.728C10.968 29.024 10.696 28.568 10.504 28.36C10.312 28.136 10.064 28.024 9.76 28.024C9.728 28.024 9.712 27.976 9.712 27.88C9.712 27.784 9.728 27.736 9.76 27.736C10.048 27.736 10.28 27.744 10.456 27.76L11.512 27.784L13.096 27.76C13.336 27.744 13.656 27.736 14.056 27.736C14.088 27.736 14.104 27.784 14.104 27.88C14.104 27.976 14.088 28.024 14.056 28.024C13.192 28.024 12.76 28.216 12.76 28.6C12.76 28.712 12.792 28.832 12.856 28.96L15.712 34.816L17.752 29.824C17.864 29.552 17.92 29.304 17.92 29.08C17.92 28.376 17.328 28.024 16.144 28.024C16.096 28.024 16.072 27.976 16.072 27.88C16.072 27.784 16.096 27.736 16.144 27.736C16.576 27.736 16.896 27.744 17.104 27.76L18.544 27.784L19.456 27.76C19.616 27.744 19.88 27.736 20.248 27.736Z" fill="#232323"/>
<path d="M37 36.712C37.048 36.712 37.072 36.76 37.072 36.856C37.072 36.952 37.048 37 37 37C36.616 37 36.304 36.992 36.064 36.976L34.744 36.952L33.424 36.976C33.184 36.992 32.872 37 32.488 37C32.44 37 32.416 36.952 32.416 36.856C32.416 36.76 32.44 36.712 32.488 36.712C33.064 36.712 33.44 36.608 33.616 36.4C33.808 36.176 33.904 35.728 33.904 35.056V31.312C33.904 30.384 33.736 29.704 33.4 29.272C33.064 28.84 32.528 28.624 31.792 28.624C31.344 28.624 30.88 28.736 30.4 28.96C29.92 29.184 29.488 29.496 29.104 29.896V35.056C29.104 35.728 29.192 36.176 29.368 36.4C29.56 36.608 29.952 36.712 30.544 36.712C30.592 36.712 30.616 36.76 30.616 36.856C30.616 36.952 30.592 37 30.544 37C30.16 37 29.848 36.992 29.608 36.976L28.288 36.952L26.944 36.976C26.72 36.992 26.416 37 26.032 37C25.984 37 25.96 36.952 25.96 36.856C25.96 36.76 25.984 36.712 26.032 36.712C26.608 36.712 26.984 36.608 27.16 36.4C27.352 36.176 27.448 35.728 27.448 35.056V30.376C27.448 29.848 27.384 29.472 27.256 29.248C27.144 29.008 26.944 28.888 26.656 28.888C26.352 28.888 25.928 29 25.384 29.224H25.336C25.288 29.224 25.248 29.184 25.216 29.104C25.2 29.024 25.216 28.976 25.264 28.96L28.24 27.544C28.272 27.528 28.32 27.52 28.384 27.52C28.544 27.52 28.696 27.704 28.84 28.072C29 28.424 29.088 28.888 29.104 29.464C30.272 28.104 31.496 27.424 32.776 27.424C33.656 27.424 34.336 27.688 34.816 28.216C35.312 28.728 35.56 29.448 35.56 30.376V35.056C35.56 35.728 35.648 36.176 35.824 36.4C36.016 36.608 36.408 36.712 37 36.712ZM46.3728 35.584C46.4208 35.584 46.4608 35.616 46.4928 35.68C46.5408 35.728 46.5488 35.776 46.5168 35.824C45.9568 36.336 45.3808 36.712 44.7888 36.952C44.2128 37.176 43.5888 37.288 42.9168 37.288C41.9568 37.288 41.1248 37.08 40.4208 36.664C39.7328 36.232 39.2048 35.664 38.8368 34.96C38.4848 34.256 38.3088 33.496 38.3088 32.68C38.3088 31.736 38.5328 30.872 38.9808 30.088C39.4448 29.288 40.0768 28.664 40.8768 28.216C41.6928 27.752 42.5888 27.52 43.5648 27.52C44.4608 27.52 45.1568 27.736 45.6528 28.168C46.1488 28.584 46.3968 29.16 46.3968 29.896C46.3968 30.296 46.3088 30.496 46.1328 30.496H44.9808L40.2528 30.544C40.1888 30.864 40.1568 31.256 40.1568 31.72C40.1568 33.096 40.4848 34.208 41.1408 35.056C41.8128 35.904 42.7328 36.328 43.9008 36.328C44.8288 36.328 45.6448 36.08 46.3488 35.584H46.3728ZM42.7248 28C42.1328 28 41.6288 28.192 41.2128 28.576C40.7968 28.944 40.5008 29.472 40.3248 30.16L44.4528 30.064C44.4368 29.424 44.2768 28.92 43.9728 28.552C43.6688 28.184 43.2528 28 42.7248 28Z" fill="#232323"/>
<path d="M23 54L23 25" stroke="#232323" stroke-width="2"/>
<path d="M44 3C44 6.0204 43.4698 9.01123 42.4395 11.8017C41.4093 14.5922 39.8993 17.1277 37.9957 19.2635C36.0921 21.3992 33.8322 23.0934 31.345 24.2492C28.8578 25.4051 26.1921 26 23.5 26C20.8079 26 18.1422 25.4051 15.655 24.2492C13.1678 23.0934 10.9079 21.3992 9.00431 19.2635C7.10071 17.1277 5.59069 14.5922 4.56047 11.8017C3.53025 9.01123 3 6.0204 3 3H4.26879C4.26879 5.83346 4.76622 8.63918 5.73267 11.257C6.69913 13.8747 8.11569 16.2533 9.90148 18.2569C11.6873 20.2604 13.8073 21.8498 16.1405 22.9341C18.4738 24.0184 20.9745 24.5765 23.5 24.5765C26.0255 24.5765 28.5262 24.0184 30.8595 22.9341C33.1927 21.8498 35.3127 20.2604 37.0985 18.2569C38.8843 16.2533 40.3009 13.8747 41.2673 11.257C42.2338 8.63918 42.7312 5.83346 42.7312 3H44Z" fill="#232323"/>
<path d="M41 3.49923C41 6.06001 40.5473 8.59571 39.6679 10.9616C38.7884 13.3274 37.4994 15.4771 35.8744 17.2878C34.2493 19.0986 32.3202 20.5349 30.197 21.5149C28.0738 22.4948 25.7981 22.9992 23.5 22.9992C21.2019 22.9992 18.9262 22.4948 16.803 21.5149C14.6798 20.5349 12.7507 19.0986 11.1256 17.2878C9.50061 15.4771 8.21156 13.3274 7.33211 10.9616C6.45265 8.59571 6 6.06 6 3.49923C6 3.49923 16.7126 2.70116 23.5 3.49923C26.8477 3.89285 27.75 4.49928 32 4.99923C36.25 5.49918 41 3.49923 41 3.49923Z" fill="#8D021F"/>
</g>
<defs>
<clipPath id="clip0_201_6474">
<rect width="78" height="60" fill="white"/>
</clipPath>
</defs>
</svg>
