<svg width="31" height="28" viewBox="0 0 31 28" fill="none" xmlns="http://www.w3.org/2000/svg">
<path d="M30.7891 4.69428C30.704 4.4887 30.5598 4.31297 30.3749 4.18931C30.1899 4.06566 29.9724 3.99964 29.7499 3.99959H25.4707C24.8724 2.98172 24.0209 2.13597 22.999 1.54457C21.9771 0.953165 20.8196 0.636236 19.6389 0.624591C18.7594 0.613054 17.8863 0.777554 17.0713 1.10841C16.2562 1.43927 15.5155 1.92981 14.8928 2.55115C14.252 3.18006 13.7433 3.93075 13.3968 4.75909C13.0502 5.58742 12.8728 6.47669 12.8749 7.37459V8.231C7.21331 6.73756 2.58253 2.13209 2.53331 2.08287C2.38238 1.9306 2.19109 1.82464 1.98195 1.77744C1.77281 1.73025 1.55454 1.7438 1.35285 1.8165C1.15116 1.8892 0.974434 2.01802 0.843498 2.18779C0.712561 2.35755 0.632861 2.5612 0.613784 2.77475C0.00768977 9.49522 1.95956 13.9924 3.70753 16.5813C4.55983 17.8611 5.59667 19.0079 6.78441 19.9844C4.64269 22.4496 1.2705 23.7447 1.23394 23.7588C1.07519 23.8183 0.931936 23.9128 0.814871 24.0354C0.697807 24.158 0.609962 24.3055 0.5579 24.4668C0.505839 24.6281 0.490907 24.7992 0.51422 24.9671C0.537534 25.135 0.598489 25.2954 0.692533 25.4365C0.798002 25.594 1.21988 26.1466 2.25066 26.6627C3.52472 27.3011 5.208 27.6246 7.24988 27.6246C17.1878 27.6246 25.4918 19.9718 26.3397 10.1252L30.5458 5.92053C30.7031 5.76311 30.8102 5.56258 30.8535 5.34431C30.8968 5.12603 30.8744 4.89982 30.7891 4.69428ZM24.461 8.83006C24.2681 9.02341 24.1521 9.28032 24.1347 9.55287C23.5624 18.4249 16.1486 25.3746 7.24988 25.3746C5.76488 25.3746 4.71863 25.1777 3.98456 24.9415C5.60316 24.0626 7.86019 22.5508 9.31144 20.374C9.39662 20.246 9.45465 20.1019 9.48196 19.9506C9.50927 19.7992 9.50527 19.6439 9.47022 19.4942C9.43517 19.3445 9.3698 19.2036 9.27815 19.0802C9.18651 18.9567 9.07053 18.8533 8.93738 18.7765C8.87128 18.7385 2.76253 15.0724 2.74988 5.27647C4.99988 7.10459 9.11316 9.941 13.8128 10.7313C13.9739 10.7585 14.139 10.7502 14.2965 10.7071C14.4541 10.6641 14.6004 10.5872 14.7252 10.4819C14.8501 10.3766 14.9505 10.2453 15.0195 10.0973C15.0885 9.94923 15.1245 9.78793 15.1249 9.62459V7.37459C15.1236 6.77447 15.2424 6.18016 15.4742 5.62664C15.7061 5.07311 16.0463 4.57155 16.4749 4.15147C16.8857 3.73985 17.3749 3.41478 17.9135 3.19546C18.4522 2.97615 19.0293 2.86704 19.6108 2.87459C21.3911 2.89709 23.0547 3.98272 23.7508 5.576C23.8386 5.77631 23.9828 5.94671 24.1659 6.06634C24.3489 6.18597 24.5629 6.24965 24.7816 6.24959H27.0316L24.461 8.83006Z" fill="#595959"/>
</svg>
