<svg width="36" height="36" viewBox="0 0 36 36" fill="none" xmlns="http://www.w3.org/2000/svg">
<path d="M34.7892 9.69428C34.7041 9.4887 34.56 9.31297 34.375 9.18931C34.19 9.06566 33.9725 8.99964 33.75 8.99959H29.4708C28.8725 7.98172 28.021 7.13597 26.9991 6.54457C25.9772 5.95317 24.8197 5.63624 23.6391 5.62459C22.7595 5.61305 21.8865 5.77755 21.0714 6.10841C20.2563 6.43927 19.5157 6.92981 18.893 7.55115C18.2521 8.18006 17.7434 8.93075 17.3969 9.75909C17.0503 10.5874 16.8729 11.4767 16.875 12.3746V13.231C11.2134 11.7376 6.58266 7.13209 6.53344 7.08287C6.38251 6.9306 6.19121 6.82464 5.98207 6.77744C5.77293 6.73025 5.55467 6.7438 5.35297 6.8165C5.15128 6.8892 4.97456 7.01802 4.84362 7.18779C4.71268 7.35755 4.63298 7.5612 4.61391 7.77475C4.00781 14.4952 5.95969 18.9924 7.70766 21.5813C8.55995 22.8611 9.59679 24.0079 10.7845 24.9844C8.64281 27.4496 5.27062 28.7447 5.23406 28.7588C5.07532 28.8183 4.93206 28.9128 4.81499 29.0354C4.69793 29.158 4.61008 29.3055 4.55802 29.4668C4.50596 29.6281 4.49103 29.7992 4.51434 29.9671C4.53766 30.135 4.59861 30.2954 4.69266 30.4365C4.79812 30.594 5.22 31.1466 6.25078 31.6627C7.52484 32.3011 9.20812 32.6246 11.25 32.6246C21.188 32.6246 29.4919 24.9718 30.3398 15.1252L34.5459 10.9205C34.7032 10.7631 34.8103 10.5626 34.8536 10.3443C34.8969 10.126 34.8745 9.89982 34.7892 9.69428ZM28.4611 13.8301C28.2682 14.0234 28.1523 14.2803 28.1348 14.5529C27.5625 23.4249 20.1487 30.3746 11.25 30.3746C9.765 30.3746 8.71875 30.1777 7.98469 29.9415C9.60328 29.0626 11.8603 27.5508 13.3116 25.374C13.3967 25.246 13.4548 25.1019 13.4821 24.9506C13.5094 24.7992 13.5054 24.6439 13.4703 24.4942C13.4353 24.3445 13.3699 24.2036 13.2783 24.0802C13.1866 23.9567 13.0707 23.8533 12.9375 23.7765C12.8714 23.7385 6.76266 20.0724 6.75 10.2765C9 12.1046 13.1133 14.941 17.813 15.7313C17.974 15.7585 18.1391 15.7502 18.2967 15.7071C18.4542 15.6641 18.6005 15.5872 18.7254 15.4819C18.8502 15.3766 18.9506 15.2453 19.0197 15.0973C19.0887 14.9492 19.1246 14.7879 19.125 14.6246V12.3746C19.1237 11.7745 19.2425 11.1802 19.4744 10.6266C19.7062 10.0731 20.0464 9.57155 20.475 9.15147C20.8858 8.73985 21.375 8.41478 21.9137 8.19546C22.4523 7.97615 23.0294 7.86704 23.6109 7.87459C25.3912 7.89709 27.0548 8.98272 27.7509 10.576C27.8387 10.7763 27.9829 10.9467 28.166 11.0663C28.3491 11.186 28.563 11.2497 28.7817 11.2496H31.0317L28.4611 13.8301Z" fill="#595959"/>
</svg>

