<svg width="28" height="27" viewBox="0 0 28 27" fill="none" xmlns="http://www.w3.org/2000/svg">
<path d="M26.8648 24.5005C24.9611 21.2092 22.0273 18.8492 18.6036 17.7305C20.2971 16.7223 21.6129 15.1861 22.3489 13.3577C23.0848 11.5294 23.2002 9.50997 22.6774 7.60967C22.1546 5.70936 21.0224 4.03321 19.4548 2.83863C17.8872 1.64404 15.9708 0.99707 13.9999 0.99707C12.0289 0.99707 10.1125 1.64404 8.54488 2.83863C6.97725 4.03321 5.84509 5.70936 5.32228 7.60967C4.79946 9.50997 4.91489 11.5294 5.65083 13.3577C6.38678 15.1861 7.70256 16.7223 9.3961 17.7305C5.97235 18.848 3.0386 21.208 1.13485 24.5005C1.06504 24.6143 1.01873 24.741 0.998661 24.873C0.978593 25.005 0.985171 25.1397 1.01801 25.2692C1.05084 25.3986 1.10927 25.5201 1.18984 25.6266C1.27041 25.7331 1.3715 25.8224 1.48713 25.8892C1.60277 25.956 1.73061 25.9989 1.86311 26.0155C1.99561 26.0321 2.1301 26.022 2.25863 25.9858C2.38716 25.9495 2.50713 25.8879 2.61146 25.8046C2.71579 25.7212 2.80238 25.6178 2.8661 25.5005C5.2211 21.4305 9.3836 19.0005 13.9999 19.0005C18.6161 19.0005 22.7786 21.4305 25.1336 25.5005C25.1973 25.6178 25.2839 25.7212 25.3882 25.8046C25.4926 25.8879 25.6125 25.9495 25.7411 25.9858C25.8696 26.022 26.0041 26.0321 26.1366 26.0155C26.2691 25.9989 26.3969 25.956 26.5126 25.8892C26.6282 25.8224 26.7293 25.7331 26.8099 25.6266C26.8904 25.5201 26.9489 25.3986 26.9817 25.2692C27.0145 25.1397 27.0211 25.005 27.001 24.873C26.981 24.741 26.9347 24.6143 26.8648 24.5005ZM6.99985 10.0005C6.99985 8.616 7.41039 7.26262 8.17956 6.11148C8.94873 4.96034 10.042 4.06313 11.3211 3.53331C12.6001 3.0035 14.0076 2.86488 15.3655 3.13497C16.7234 3.40507 17.9706 4.07176 18.9496 5.05072C19.9286 6.02969 20.5953 7.27697 20.8653 8.63484C21.1354 9.99271 20.9968 11.4002 20.467 12.6793C19.9372 13.9583 19.04 15.0516 17.8888 15.8208C16.7377 16.5899 15.3843 17.0005 13.9999 17.0005C12.1439 16.9985 10.3646 16.2604 9.0523 14.948C7.73997 13.6357 7.00184 11.8564 6.99985 10.0005Z" fill="#595959"/>
</svg>
