<svg width="20" height="20" viewBox="0 0 20 20" fill="none" xmlns="http://www.w3.org/2000/svg">
<rect width="20" height="20" fill="#232323"/>
<path d="M17.9422 6.06754L7.94217 16.0675C7.88412 16.1256 7.81519 16.1717 7.73932 16.2032C7.66344 16.2347 7.58212 16.2508 7.49998 16.2508C7.41785 16.2508 7.33652 16.2347 7.26064 16.2032C7.18477 16.1717 7.11584 16.1256 7.05779 16.0675L2.68279 11.6925C2.56552 11.5753 2.49963 11.4162 2.49963 11.2503C2.49963 11.0845 2.56552 10.9254 2.68279 10.8082C2.80007 10.6909 2.95913 10.625 3.12498 10.625C3.29083 10.625 3.44989 10.6909 3.56717 10.8082L7.49998 14.7418L17.0578 5.18316C17.1751 5.06588 17.3341 5 17.5 5C17.6658 5 17.8249 5.06588 17.9422 5.18316C18.0594 5.30044 18.1253 5.4595 18.1253 5.62535C18.1253 5.7912 18.0594 5.95026 17.9422 6.06754Z" fill="white"/>
</svg>
