<svg width="30" height="26" viewBox="0 0 30 26" fill="none" xmlns="http://www.w3.org/2000/svg">
<path d="M5.73999 1.32758C5.65217 1.22859 5.54558 1.14801 5.42639 1.09052C5.3072 1.03303 5.17778 0.999764 5.04564 0.992655C4.91351 0.985546 4.78127 1.00473 4.6566 1.04911C4.53193 1.09348 4.41731 1.16216 4.31938 1.25116C4.22144 1.34016 4.14215 1.44771 4.08609 1.56758C4.03003 1.68745 3.99832 1.81725 3.9928 1.94947C3.98727 2.08168 4.00804 2.21368 4.05391 2.33781C4.09978 2.46194 4.16982 2.57573 4.25999 2.67258L6.66499 5.31883C2.12499 8.10508 0.172488 12.4001 0.086238 12.5951C0.0293795 12.723 0 12.8614 0 13.0013C0 13.1413 0.0293795 13.2797 0.086238 13.4076C0.129988 13.5063 1.18874 15.8538 3.54249 18.2076C6.67874 21.3426 10.64 23.0001 15 23.0001C17.2408 23.0128 19.4589 22.5515 21.5087 21.6463L24.2587 24.6726C24.3466 24.7716 24.4531 24.8522 24.5723 24.9096C24.6915 24.9671 24.8209 25.0004 24.9531 25.0075C25.0852 25.0146 25.2175 24.9954 25.3421 24.9511C25.4668 24.9067 25.5814 24.838 25.6793 24.749C25.7773 24.66 25.8566 24.5525 25.9126 24.4326C25.9687 24.3127 26.0004 24.1829 26.0059 24.0507C26.0115 23.9185 25.9907 23.7865 25.9448 23.6624C25.899 23.5382 25.8289 23.4244 25.7387 23.3276L5.73999 1.32758ZM11.6562 10.8076L16.865 16.5388C16.0806 16.9515 15.1814 17.0919 14.3085 16.9381C13.4357 16.7843 12.6386 16.345 12.0425 15.6891C11.4464 15.0332 11.085 14.1979 11.0151 13.3144C10.9452 12.4308 11.1707 11.5491 11.6562 10.8076ZM15 21.0001C11.1525 21.0001 7.79124 19.6013 5.00874 16.8438C3.86663 15.7088 2.89526 14.4141 2.12499 13.0001C2.71124 11.9013 4.58249 8.82633 8.04374 6.82758L10.2937 9.29633C9.42266 10.412 8.97403 11.7996 9.02715 13.214C9.08027 14.6285 9.63173 15.9786 10.584 17.0257C11.5363 18.0729 12.8282 18.7496 14.2312 18.9364C15.6343 19.1232 17.0582 18.8079 18.2512 18.0463L20.0925 20.0713C18.4675 20.6948 16.7405 21.0097 15 21.0001ZM15.75 9.07133C15.4894 9.02161 15.2593 8.8704 15.1102 8.65098C14.9611 8.43157 14.9053 8.16191 14.955 7.90133C15.0047 7.64076 15.1559 7.41061 15.3753 7.26152C15.5948 7.11243 15.8644 7.05661 16.125 7.10633C17.3995 7.35342 18.56 8.0059 19.4333 8.96644C20.3067 9.92699 20.8462 11.1441 20.9712 12.4363C20.9959 12.7004 20.9147 12.9634 20.7455 13.1676C20.5762 13.3718 20.3328 13.5004 20.0687 13.5251C20.0375 13.5269 20.0062 13.5269 19.975 13.5251C19.725 13.5262 19.4838 13.4336 19.2987 13.2656C19.1136 13.0976 18.9981 12.8665 18.975 12.6176C18.8908 11.7581 18.5315 10.9487 17.9504 10.3098C17.3694 9.67084 16.5977 9.2365 15.75 9.07133ZM29.91 13.4076C29.8575 13.5251 28.5912 16.3288 25.74 18.8826C25.6426 18.9726 25.5282 19.0424 25.4036 19.0878C25.2789 19.1332 25.1465 19.1533 25.014 19.1471C24.8814 19.1408 24.7515 19.1082 24.6317 19.0512C24.5119 18.9942 24.4047 18.914 24.3162 18.8151C24.2277 18.7163 24.1598 18.6008 24.1163 18.4755C24.0729 18.3501 24.0549 18.2174 24.0633 18.085C24.0716 17.9526 24.1063 17.8232 24.1652 17.7043C24.2241 17.5855 24.306 17.4795 24.4062 17.3926C25.8051 16.1359 26.9801 14.6505 27.8812 13.0001C27.1093 11.5848 26.1358 10.2892 24.9912 9.15383C22.2087 6.39883 18.8475 5.00008 15 5.00008C14.1893 4.99909 13.3799 5.06473 12.58 5.19633C12.4499 5.21934 12.3166 5.21634 12.1876 5.18752C12.0587 5.15869 11.9368 5.10461 11.8289 5.02839C11.721 4.95217 11.6293 4.85533 11.559 4.74346C11.4887 4.63159 11.4413 4.50691 11.4196 4.37662C11.3978 4.24633 11.402 4.11301 11.432 3.98436C11.462 3.85572 11.5172 3.7343 11.5945 3.62711C11.6717 3.51992 11.7694 3.4291 11.8819 3.35988C11.9944 3.29066 12.1195 3.24442 12.25 3.22383C13.1589 3.07375 14.0787 2.99891 15 3.00008C19.36 3.00008 23.3212 4.65758 26.4575 7.79383C28.8112 10.1476 29.87 12.4963 29.9137 12.5951C29.9706 12.723 30 12.8614 30 13.0013C30 13.1413 29.9706 13.2797 29.9137 13.4076H29.91Z" fill="#595959"/>
</svg>
