<svg width="17" height="12" viewBox="0 0 17 12" fill="none" xmlns="http://www.w3.org/2000/svg">
<path d="M15.9425 1.06705L5.94254 11.067C5.88449 11.1252 5.81556 11.1713 5.73969 11.2027C5.66381 11.2342 5.58248 11.2504 5.50035 11.2504C5.41821 11.2504 5.33688 11.2342 5.26101 11.2027C5.18514 11.1713 5.11621 11.1252 5.05816 11.067L0.68316 6.69205C0.565885 6.57477 0.5 6.41571 0.5 6.24986C0.5 6.08401 0.565885 5.92495 0.68316 5.80767C0.800435 5.6904 0.959495 5.62451 1.12535 5.62451C1.2912 5.62451 1.45026 5.6904 1.56753 5.80767L5.50035 9.74127L15.0582 0.182671C15.1754 0.065396 15.3345 -0.000488282 15.5003 -0.000488281C15.6662 -0.00048828 15.8253 0.065396 15.9425 0.182671C16.0598 0.299947 16.1257 0.459007 16.1257 0.624859C16.1257 0.790712 16.0598 0.949772 15.9425 1.06705Z" fill="white"/>
</svg>
