<svg width="36" height="36" viewBox="0 0 36 36" fill="none" xmlns="http://www.w3.org/2000/svg">
<g clip-path="url(#clip0_205_509)">
<path d="M18 11.25C16.665 11.25 15.3599 11.6459 14.2499 12.3876C13.1399 13.1293 12.2747 14.1835 11.7638 15.4169C11.2529 16.6503 11.1192 18.0075 11.3797 19.3169C11.6402 20.6262 12.283 21.829 13.227 22.773C14.171 23.717 15.3738 24.3599 16.6831 24.6203C17.9925 24.8808 19.3497 24.7471 20.5831 24.2362C21.8165 23.7253 22.8707 22.8601 23.6124 21.7501C24.3541 20.6401 24.75 19.335 24.75 18C24.7481 16.2104 24.0364 14.4946 22.7709 13.2291C21.5054 11.9636 19.7896 11.2519 18 11.25ZM18 22.5C17.11 22.5 16.24 22.2361 15.4999 21.7416C14.7599 21.2471 14.1831 20.5443 13.8425 19.7221C13.5019 18.8998 13.4128 17.995 13.5865 17.1221C13.7601 16.2492 14.1887 15.4474 14.818 14.818C15.4474 14.1887 16.2492 13.7601 17.1221 13.5865C17.995 13.4128 18.8998 13.5019 19.7221 13.8425C20.5443 14.1831 21.2471 14.7599 21.7416 15.4999C22.2361 16.24 22.5 17.11 22.5 18C22.5 19.1935 22.0259 20.3381 21.182 21.182C20.3381 22.0259 19.1935 22.5 18 22.5ZM24.75 3.375H11.25C9.16211 3.37723 7.16037 4.20764 5.684 5.684C4.20764 7.16037 3.37723 9.16211 3.375 11.25V24.75C3.37723 26.8379 4.20764 28.8396 5.684 30.316C7.16037 31.7924 9.16211 32.6228 11.25 32.625H24.75C26.8379 32.6228 28.8396 31.7924 30.316 30.316C31.7924 28.8396 32.6228 26.8379 32.625 24.75V11.25C32.6228 9.16211 31.7924 7.16037 30.316 5.684C28.8396 4.20764 26.8379 3.37723 24.75 3.375ZM30.375 24.75C30.375 26.2418 29.7824 27.6726 28.7275 28.7275C27.6726 29.7824 26.2418 30.375 24.75 30.375H11.25C9.75816 30.375 8.32742 29.7824 7.27252 28.7275C6.21763 27.6726 5.625 26.2418 5.625 24.75V11.25C5.625 9.75816 6.21763 8.32742 7.27252 7.27252C8.32742 6.21763 9.75816 5.625 11.25 5.625H24.75C26.2418 5.625 27.6726 6.21763 28.7275 7.27252C29.7824 8.32742 30.375 9.75816 30.375 11.25V24.75ZM27 10.6875C27 11.0213 26.901 11.3475 26.7156 11.625C26.5302 11.9025 26.2666 12.1188 25.9583 12.2465C25.6499 12.3743 25.3106 12.4077 24.9833 12.3426C24.6559 12.2775 24.3553 12.1167 24.1193 11.8807C23.8833 11.6447 23.7225 11.3441 23.6574 11.0167C23.5923 10.6894 23.6257 10.3501 23.7535 10.0417C23.8812 9.73337 24.0975 9.46982 24.375 9.28439C24.6525 9.09897 24.9787 9 25.3125 9C25.7601 9 26.1893 9.17779 26.5057 9.49426C26.8222 9.81072 27 10.2399 27 10.6875Z" fill="black"/>
<path d="M18 11.25C16.665 11.25 15.3599 11.6459 14.2499 12.3876C13.1399 13.1293 12.2747 14.1835 11.7638 15.4169C11.2529 16.6503 11.1192 18.0075 11.3797 19.3169C11.6402 20.6262 12.283 21.829 13.227 22.773C14.171 23.717 15.3738 24.3599 16.6831 24.6203C17.9925 24.8808 19.3497 24.7471 20.5831 24.2362C21.8165 23.7253 22.8707 22.8601 23.6124 21.7501C24.3541 20.6401 24.75 19.335 24.75 18C24.7481 16.2104 24.0364 14.4946 22.7709 13.2291C21.5054 11.9636 19.7896 11.2519 18 11.25ZM18 22.5C17.11 22.5 16.24 22.2361 15.4999 21.7416C14.7599 21.2471 14.1831 20.5443 13.8425 19.7221C13.5019 18.8998 13.4128 17.995 13.5865 17.1221C13.7601 16.2492 14.1887 15.4474 14.818 14.818C15.4474 14.1887 16.2492 13.7601 17.1221 13.5865C17.995 13.4128 18.8998 13.5019 19.7221 13.8425C20.5443 14.1831 21.2471 14.7599 21.7416 15.4999C22.2361 16.24 22.5 17.11 22.5 18C22.5 19.1935 22.0259 20.3381 21.182 21.182C20.3381 22.0259 19.1935 22.5 18 22.5ZM24.75 3.375H11.25C9.16211 3.37723 7.16037 4.20764 5.684 5.684C4.20764 7.16037 3.37723 9.16211 3.375 11.25V24.75C3.37723 26.8379 4.20764 28.8396 5.684 30.316C7.16037 31.7924 9.16211 32.6228 11.25 32.625H24.75C26.8379 32.6228 28.8396 31.7924 30.316 30.316C31.7924 28.8396 32.6228 26.8379 32.625 24.75V11.25C32.6228 9.16211 31.7924 7.16037 30.316 5.684C28.8396 4.20764 26.8379 3.37723 24.75 3.375ZM30.375 24.75C30.375 26.2418 29.7824 27.6726 28.7275 28.7275C27.6726 29.7824 26.2418 30.375 24.75 30.375H11.25C9.75816 30.375 8.32742 29.7824 7.27252 28.7275C6.21763 27.6726 5.625 26.2418 5.625 24.75V11.25C5.625 9.75816 6.21763 8.32742 7.27252 7.27252C8.32742 6.21763 9.75816 5.625 11.25 5.625H24.75C26.2418 5.625 27.6726 6.21763 28.7275 7.27252C29.7824 8.32742 30.375 9.75816 30.375 11.25V24.75ZM27 10.6875C27 11.0213 26.901 11.3475 26.7156 11.625C26.5302 11.9025 26.2666 12.1188 25.9583 12.2465C25.6499 12.3743 25.3106 12.4077 24.9833 12.3426C24.6559 12.2775 24.3553 12.1167 24.1193 11.8807C23.8833 11.6447 23.7225 11.3441 23.6574 11.0167C23.5923 10.6894 23.6257 10.3501 23.7535 10.0417C23.8812 9.73337 24.0975 9.46982 24.375 9.28439C24.6525 9.09897 24.9787 9 25.3125 9C25.7601 9 26.1893 9.17779 26.5057 9.49426C26.8222 9.81072 27 10.2399 27 10.6875Z" fill="#595959"/>
</g>
<defs>
<clipPath id="clip0_205_509">
<rect width="36" height="36" fill="white"/>
</clipPath>
</defs>
</svg>
