<svg width="86" height="43" viewBox="0 0 86 43" fill="none" xmlns="http://www.w3.org/2000/svg">
<path d="M20.7991 1H1V21.208M20.7991 1H42.3504M20.7991 1V21.208M42.3504 1H84.3433V21.208M42.3504 1V41.416M42.3504 41.416H22.084H1V21.208M42.3504 41.416H84.3433V21.208M84.3433 21.208H20.7991M20.7991 21.208H1" stroke="#EDEDED" stroke-width="1.40171"/>
<path fill-rule="evenodd" clip-rule="evenodd" d="M34.5891 6.81925C34.5891 7.6462 33.916 8.31657 33.0856 8.31657C32.2552 8.31657 31.582 7.6462 31.582 6.81925C31.582 5.99231 32.2552 5.32194 33.0856 5.32194C33.916 5.32194 34.5891 5.99231 34.5891 6.81925ZM33.0856 7.8032C33.6313 7.8032 34.0736 7.36267 34.0736 6.81925C34.0736 6.27583 33.6313 5.8353 33.0856 5.8353C32.5399 5.8353 32.0975 6.27583 32.0975 6.81925C32.0975 7.36267 32.5399 7.8032 33.0856 7.8032Z" fill="#EDEDED"/>
<path fill-rule="evenodd" clip-rule="evenodd" d="M34.5891 14.0064C34.5891 14.8333 33.916 15.5037 33.0856 15.5037C32.2552 15.5037 31.582 14.8333 31.582 14.0064C31.582 13.1794 32.2552 12.509 33.0856 12.509C33.916 12.509 34.5891 13.1794 34.5891 14.0064ZM33.0856 14.9903C33.6313 14.9903 34.0736 14.5498 34.0736 14.0064C34.0736 13.4629 33.6313 13.0224 33.0856 13.0224C32.5399 13.0224 32.0975 13.4629 32.0975 14.0064C32.0975 14.5498 32.5399 14.9903 33.0856 14.9903Z" fill="#EDEDED"/>
<path fill-rule="evenodd" clip-rule="evenodd" d="M30.8947 6.81925C30.8947 7.6462 30.2215 8.31657 29.3911 8.31657C28.5607 8.31657 27.8876 7.6462 27.8876 6.81925C27.8876 5.99231 28.5607 5.32194 29.3911 5.32194C30.2215 5.32194 30.8947 5.99231 30.8947 6.81925ZM29.3911 7.8032C29.9368 7.8032 30.3792 7.36267 30.3792 6.81925C30.3792 6.27583 29.9368 5.8353 29.3911 5.8353C28.8454 5.8353 28.4031 6.27583 28.4031 6.81925C28.4031 7.36267 28.8454 7.8032 29.3911 7.8032Z" fill="#EDEDED"/>
<path fill-rule="evenodd" clip-rule="evenodd" d="M30.8947 14.0064C30.8947 14.8333 30.2215 15.5037 29.3911 15.5037C28.5607 15.5037 27.8876 14.8333 27.8876 14.0064C27.8876 13.1794 28.5607 12.509 29.3911 12.509C30.2215 12.509 30.8947 13.1794 30.8947 14.0064ZM29.3911 14.9903C29.9368 14.9903 30.3792 14.5498 30.3792 14.0064C30.3792 13.4629 29.9368 13.0224 29.3911 13.0224C28.8454 13.0224 28.4031 13.4629 28.4031 14.0064C28.4031 14.5498 28.8454 14.9903 29.3911 14.9903Z" fill="#EDEDED"/>
<path fill-rule="evenodd" clip-rule="evenodd" d="M32.6989 10.4128C32.6989 11.2397 32.0258 11.9101 31.1954 11.9101C30.365 11.9101 29.6918 11.2397 29.6918 10.4128C29.6918 9.58586 30.365 8.91549 31.1954 8.91549C32.0258 8.91549 32.6989 9.58586 32.6989 10.4128ZM31.1954 11.3968C31.7411 11.3968 32.1834 10.9562 32.1834 10.4128C32.1834 9.86939 31.7411 9.42886 31.1954 9.42886C30.6497 9.42886 30.2073 9.86939 30.2073 10.4128C30.2073 10.9562 30.6497 11.3968 31.1954 11.3968Z" fill="#EDEDED"/>
<path fill-rule="evenodd" clip-rule="evenodd" d="M29.0045 10.4128C29.0045 11.2397 28.3313 11.9101 27.5009 11.9101C26.6705 11.9101 25.9974 11.2397 25.9974 10.4128C25.9974 9.58586 26.6705 8.91549 27.5009 8.91549C28.3313 8.91549 29.0045 9.58586 29.0045 10.4128ZM27.5009 11.3968C28.0466 11.3968 28.489 10.9562 28.489 10.4128C28.489 9.86939 28.0466 9.42886 27.5009 9.42886C26.9552 9.42886 26.5129 9.86939 26.5129 10.4128C26.5129 10.9562 26.9552 11.3968 27.5009 11.3968Z" fill="#EDEDED"/>
<path fill-rule="evenodd" clip-rule="evenodd" d="M36.3934 10.4128C36.3934 11.2397 35.7202 11.9101 34.8898 11.9101C34.0594 11.9101 33.3863 11.2397 33.3863 10.4128C33.3863 9.58586 34.0594 8.91549 34.8898 8.91549C35.7202 8.91549 36.3934 9.58586 36.3934 10.4128ZM34.8898 11.3968C35.4355 11.3968 35.8779 10.9562 35.8779 10.4128C35.8779 9.86939 35.4355 9.42886 34.8898 9.42886C34.3441 9.42886 33.9018 9.86939 33.9018 10.4128C33.9018 10.9562 34.3441 11.3968 34.8898 11.3968Z" fill="#EDEDED"/>
<path fill-rule="evenodd" clip-rule="evenodd" d="M32.6989 17.2577C32.6989 18.0846 32.0258 18.755 31.1954 18.755C30.365 18.755 29.6918 18.0846 29.6918 17.2577C29.6918 16.4307 30.365 15.7604 31.1954 15.7604C32.0258 15.7604 32.6989 16.4307 32.6989 17.2577ZM31.1954 18.2416C31.7411 18.2416 32.1834 17.8011 32.1834 17.2577C32.1834 16.7142 31.7411 16.2737 31.1954 16.2737C30.6497 16.2737 30.2073 16.7142 30.2073 17.2577C30.2073 17.8011 30.6497 18.2416 31.1954 18.2416Z" fill="#EDEDED"/>
<path d="M31.1526 5.55556L30.5529 1H31.8378L31.1526 5.55556Z" fill="#EDEDED"/>
<path fill-rule="evenodd" clip-rule="evenodd" d="M34.5891 6.81925C34.5891 7.6462 33.916 8.31657 33.0856 8.31657C32.2552 8.31657 31.582 7.6462 31.582 6.81925C31.582 5.99231 32.2552 5.32194 33.0856 5.32194C33.916 5.32194 34.5891 5.99231 34.5891 6.81925ZM33.0856 7.8032C33.6313 7.8032 34.0736 7.36267 34.0736 6.81925C34.0736 6.27583 33.6313 5.8353 33.0856 5.8353C32.5399 5.8353 32.0975 6.27583 32.0975 6.81925C32.0975 7.36267 32.5399 7.8032 33.0856 7.8032Z" stroke="#EDEDED" stroke-width="0.467236"/>
<path fill-rule="evenodd" clip-rule="evenodd" d="M34.5891 14.0064C34.5891 14.8333 33.916 15.5037 33.0856 15.5037C32.2552 15.5037 31.582 14.8333 31.582 14.0064C31.582 13.1794 32.2552 12.509 33.0856 12.509C33.916 12.509 34.5891 13.1794 34.5891 14.0064ZM33.0856 14.9903C33.6313 14.9903 34.0736 14.5498 34.0736 14.0064C34.0736 13.4629 33.6313 13.0224 33.0856 13.0224C32.5399 13.0224 32.0975 13.4629 32.0975 14.0064C32.0975 14.5498 32.5399 14.9903 33.0856 14.9903Z" stroke="#EDEDED" stroke-width="0.467236"/>
<path fill-rule="evenodd" clip-rule="evenodd" d="M30.8947 6.81925C30.8947 7.6462 30.2215 8.31657 29.3911 8.31657C28.5607 8.31657 27.8876 7.6462 27.8876 6.81925C27.8876 5.99231 28.5607 5.32194 29.3911 5.32194C30.2215 5.32194 30.8947 5.99231 30.8947 6.81925ZM29.3911 7.8032C29.9368 7.8032 30.3792 7.36267 30.3792 6.81925C30.3792 6.27583 29.9368 5.8353 29.3911 5.8353C28.8454 5.8353 28.4031 6.27583 28.4031 6.81925C28.4031 7.36267 28.8454 7.8032 29.3911 7.8032Z" stroke="#EDEDED" stroke-width="0.467236"/>
<path fill-rule="evenodd" clip-rule="evenodd" d="M30.8947 14.0064C30.8947 14.8333 30.2215 15.5037 29.3911 15.5037C28.5607 15.5037 27.8876 14.8333 27.8876 14.0064C27.8876 13.1794 28.5607 12.509 29.3911 12.509C30.2215 12.509 30.8947 13.1794 30.8947 14.0064ZM29.3911 14.9903C29.9368 14.9903 30.3792 14.5498 30.3792 14.0064C30.3792 13.4629 29.9368 13.0224 29.3911 13.0224C28.8454 13.0224 28.4031 13.4629 28.4031 14.0064C28.4031 14.5498 28.8454 14.9903 29.3911 14.9903Z" stroke="#EDEDED" stroke-width="0.467236"/>
<path fill-rule="evenodd" clip-rule="evenodd" d="M32.6989 10.4128C32.6989 11.2397 32.0258 11.9101 31.1954 11.9101C30.365 11.9101 29.6918 11.2397 29.6918 10.4128C29.6918 9.58586 30.365 8.91549 31.1954 8.91549C32.0258 8.91549 32.6989 9.58586 32.6989 10.4128ZM31.1954 11.3968C31.7411 11.3968 32.1834 10.9562 32.1834 10.4128C32.1834 9.86939 31.7411 9.42886 31.1954 9.42886C30.6497 9.42886 30.2073 9.86939 30.2073 10.4128C30.2073 10.9562 30.6497 11.3968 31.1954 11.3968Z" stroke="#EDEDED" stroke-width="0.467236"/>
<path fill-rule="evenodd" clip-rule="evenodd" d="M29.0045 10.4128C29.0045 11.2397 28.3313 11.9101 27.5009 11.9101C26.6705 11.9101 25.9974 11.2397 25.9974 10.4128C25.9974 9.58586 26.6705 8.91549 27.5009 8.91549C28.3313 8.91549 29.0045 9.58586 29.0045 10.4128ZM27.5009 11.3968C28.0466 11.3968 28.489 10.9562 28.489 10.4128C28.489 9.86939 28.0466 9.42886 27.5009 9.42886C26.9552 9.42886 26.5129 9.86939 26.5129 10.4128C26.5129 10.9562 26.9552 11.3968 27.5009 11.3968Z" stroke="#EDEDED" stroke-width="0.467236"/>
<path fill-rule="evenodd" clip-rule="evenodd" d="M36.3934 10.4128C36.3934 11.2397 35.7202 11.9101 34.8898 11.9101C34.0594 11.9101 33.3863 11.2397 33.3863 10.4128C33.3863 9.58586 34.0594 8.91549 34.8898 8.91549C35.7202 8.91549 36.3934 9.58586 36.3934 10.4128ZM34.8898 11.3968C35.4355 11.3968 35.8779 10.9562 35.8779 10.4128C35.8779 9.86939 35.4355 9.42886 34.8898 9.42886C34.3441 9.42886 33.9018 9.86939 33.9018 10.4128C33.9018 10.9562 34.3441 11.3968 34.8898 11.3968Z" stroke="#EDEDED" stroke-width="0.467236"/>
<path fill-rule="evenodd" clip-rule="evenodd" d="M32.6989 17.2577C32.6989 18.0846 32.0258 18.755 31.1954 18.755C30.365 18.755 29.6918 18.0846 29.6918 17.2577C29.6918 16.4307 30.365 15.7604 31.1954 15.7604C32.0258 15.7604 32.6989 16.4307 32.6989 17.2577ZM31.1954 18.2416C31.7411 18.2416 32.1834 17.8011 32.1834 17.2577C32.1834 16.7142 31.7411 16.2737 31.1954 16.2737C30.6497 16.2737 30.2073 16.7142 30.2073 17.2577C30.2073 17.8011 30.6497 18.2416 31.1954 18.2416Z" stroke="#EDEDED" stroke-width="0.467236"/>
<path d="M31.1526 5.55556L30.5529 1H31.8378L31.1526 5.55556Z" stroke="#EDEDED" stroke-width="0.467236"/>
<path d="M6.65332 10.4018C7.58042 8.63193 9.43491 7.42433 11.5714 7.42433C13.7113 7.42433 15.5683 8.63573 16.4939 10.4102C16.8433 10.3111 17.1895 10.2197 17.5318 10.1354C16.4708 7.91051 14.2007 6.37305 11.5714 6.37305C8.94701 6.37305 6.68036 7.90492 5.61687 10.1233C5.95406 10.2076 6.29993 10.3002 6.65332 10.4018Z" fill="#EDEDED"/>
<path d="M1.11702 9.41427V10.3676C2.20462 10.4394 3.62754 10.6516 5.25286 11.061C5.35069 10.7372 5.47273 10.424 5.61687 10.1233C3.80543 9.67049 2.24473 9.45991 1.11702 9.41427Z" fill="#EDEDED"/>
<path d="M6.65332 10.4018C6.29993 10.3002 5.95406 10.2076 5.61687 10.1233C5.47273 10.424 5.35069 10.7372 5.25286 11.061C5.58339 11.1443 5.9223 11.2357 6.26846 11.3357C6.36869 11.0107 6.49799 10.6983 6.65332 10.4018Z" fill="#EDEDED"/>
<path d="M10.4435 12.8655C10.8268 12.657 11.2107 12.4597 11.5946 12.273C9.86988 11.4537 8.19053 10.8436 6.65332 10.4018C6.49799 10.6983 6.36869 11.0107 6.26846 11.3357C7.57667 11.7138 8.98848 12.2152 10.4435 12.8655Z" fill="#EDEDED"/>
<path d="M11.6116 13.4161C12.0003 13.2215 12.389 13.0379 12.7771 12.8649C12.3814 12.6564 11.9868 12.4593 11.5946 12.273C11.2107 12.4597 10.8268 12.657 10.4435 12.8655C10.8302 13.0383 11.22 13.2217 11.6116 13.4161Z" fill="#EDEDED"/>
<path d="M16.1198 16.1512C16.3143 15.8734 16.484 15.5769 16.6257 15.265C15.356 14.3352 14.0602 13.5406 12.7771 12.8649C12.389 13.0379 12.0003 13.2215 11.6116 13.4161C13.1074 14.1583 14.6311 15.0611 16.1198 16.1512Z" fill="#EDEDED"/>
<path d="M16.9574 16.7878C17.1532 16.5119 17.3284 16.2202 17.4806 15.9151C17.1973 15.6914 16.9122 15.4748 16.6257 15.265C16.484 15.5769 16.3143 15.8734 16.1198 16.1512C16.4004 16.3567 16.6797 16.5688 16.9574 16.7878Z" fill="#EDEDED"/>
<path d="M20.5657 20.1752V18.7357C19.5778 17.6897 18.5416 16.7528 17.4806 15.9151C17.3284 16.2202 17.1532 16.5119 16.9574 16.7878C18.2068 17.773 19.4224 18.8967 20.5657 20.1752Z" fill="#EDEDED"/>
<path d="M12.5319 21.1494H14.2865C13.5213 20.5682 12.7431 20.0402 11.9603 19.5612C11.8316 19.5687 11.702 19.5725 11.5714 19.5725C9.40169 19.5725 7.47649 18.5254 6.27356 16.909C6.26016 16.891 6.24685 16.8729 6.23364 16.8548C4.39112 16.2098 2.64465 15.7943 1.11702 15.5462V16.5782C4.38665 17.1586 8.56496 18.4935 12.5319 21.1494Z" fill="#EDEDED"/>
<path d="M11.5714 19.5725C11.702 19.5725 11.8316 19.5687 11.9603 19.5612C10.063 18.4003 8.13871 17.527 6.3074 16.8807C6.29612 16.8901 6.28483 16.8996 6.27356 16.909C7.47649 18.5254 9.40169 19.5725 11.5714 19.5725Z" fill="#EDEDED"/>
<path d="M20.5657 9.54781C19.605 9.68409 18.5869 9.87573 17.5318 10.1354C17.6817 10.4497 17.8074 10.7777 17.9067 11.117C18.826 10.8927 19.7168 10.72 20.5657 10.5905V9.54781Z" fill="#EDEDED"/>
<path d="M17.5318 10.1354C17.1895 10.2197 16.8433 10.3111 16.4939 10.4102C16.6549 10.7188 16.7878 11.0445 16.889 11.3838C17.2316 11.2877 17.571 11.1989 17.9067 11.117C17.8074 10.7777 17.6817 10.4497 17.5318 10.1354Z" fill="#EDEDED"/>
<path d="M16.4939 10.4102C14.9054 10.8604 13.2506 11.4677 11.5946 12.273C11.9868 12.4593 12.3814 12.6564 12.7771 12.8649C14.1696 12.244 15.5532 11.7584 16.889 11.3838C16.7878 11.0445 16.6549 10.7188 16.4939 10.4102Z" fill="#EDEDED"/>
<path d="M11.5714 41.2989V29.326L21.8506 23.8359L32.2466 29.326V35.8381M32.2466 41.4741V35.8381M32.2466 35.8381L37.4446 32.655L42.4674 35.8381" stroke="#EDEDED" stroke-width="1.2849"/>
<path d="M32.1298 41.1819V29.2674L21.8506 23.7773L11.4546 29.2674V35.7795M11.4546 41.1819V35.7795M11.4546 35.7795L6.25657 32.5964L1.23378 35.7795" stroke="#EDEDED" stroke-width="1.2849"/>
<rect x="19.3392" y="33.2383" width="5.1396" height="8.17664" stroke="#EDEDED" stroke-width="1.16809"/>
<path d="M50.1227 16.9701C49.4798 16.9701 48.9789 16.8355 48.62 16.5664C48.2687 16.2972 48.022 15.9347 47.8799 15.4786C47.7454 15.0226 47.6781 14.5143 47.6781 13.9536V10.7465C47.6781 10.1335 47.7454 9.59894 47.8799 9.14292C48.022 8.6869 48.2687 8.33553 48.62 8.08883C48.9789 7.83466 49.4798 7.70757 50.1227 7.70757C50.6908 7.70757 51.1394 7.81223 51.4683 8.02155C51.8047 8.23087 52.0439 8.5299 52.186 8.91864C52.3355 9.30739 52.4103 9.77462 52.4103 10.3204V11.038H51.2104V10.3989C51.2104 10.0624 51.1917 9.76715 51.1543 9.51297C51.1244 9.25132 51.0347 9.04947 50.8852 8.90743C50.7357 8.76539 50.4852 8.69437 50.1339 8.69437C49.775 8.69437 49.5134 8.77287 49.3489 8.92986C49.1845 9.07937 49.0761 9.29617 49.0237 9.58025C48.9789 9.85686 48.9564 10.1821 48.9564 10.5558V14.1554C48.9564 14.6115 48.9938 14.974 49.0686 15.2432C49.1433 15.5048 49.2667 15.6917 49.4386 15.8038C49.6106 15.916 49.8423 15.972 50.1339 15.972C50.4778 15.972 50.7245 15.8973 50.874 15.7478C51.0235 15.5908 51.1169 15.3777 51.1543 15.1086C51.1917 14.8395 51.2104 14.5255 51.2104 14.1666V13.4938H52.4103V14.1666C52.4103 14.7199 52.343 15.2095 52.2084 15.6356C52.0738 16.0543 51.8421 16.3832 51.5132 16.6224C51.1842 16.8542 50.7207 16.9701 50.1227 16.9701ZM57.2843 16.9701C56.6713 16.9701 56.1816 16.8505 55.8153 16.6112C55.449 16.372 55.1873 16.0319 55.0303 15.5908C54.8733 15.1422 54.7948 14.6189 54.7948 14.0209V10.5783C54.7948 9.98021 54.8733 9.46812 55.0303 9.042C55.1948 8.6084 55.4564 8.27947 55.8153 8.05519C56.1816 7.82344 56.6713 7.70757 57.2843 7.70757C57.8973 7.70757 58.3832 7.82344 58.742 8.05519C59.1009 8.28694 59.3588 8.61588 59.5158 9.042C59.6803 9.46812 59.7625 9.98021 59.7625 10.5783V14.0321C59.7625 14.6227 59.6803 15.1385 59.5158 15.5796C59.3588 16.0206 59.1009 16.3645 58.742 16.6112C58.3832 16.8505 57.8973 16.9701 57.2843 16.9701ZM57.2843 15.972C57.6207 15.972 57.8749 15.9048 58.0468 15.7702C58.2187 15.6282 58.3346 15.4338 58.3944 15.1871C58.4542 14.9329 58.4841 14.6376 58.4841 14.3012V10.3204C58.4841 9.98394 58.4542 9.69613 58.3944 9.4569C58.3346 9.2102 58.2187 9.02331 58.0468 8.89622C57.8749 8.76165 57.6207 8.69437 57.2843 8.69437C56.9479 8.69437 56.6899 8.76165 56.5105 8.89622C56.3386 9.02331 56.2227 9.2102 56.1629 9.4569C56.1031 9.69613 56.0732 9.98394 56.0732 10.3204V14.3012C56.0732 14.6376 56.1031 14.9329 56.1629 15.1871C56.2227 15.4338 56.3386 15.6282 56.5105 15.7702C56.6899 15.9048 56.9479 15.972 57.2843 15.972ZM64.4954 16.9701C63.9721 16.9701 63.5347 16.8579 63.1834 16.6337C62.8395 16.4094 62.5778 16.0991 62.3984 15.7029C62.219 15.3067 62.1143 14.8469 62.0844 14.3236L63.2058 14.0209C63.2282 14.3423 63.2768 14.6526 63.3516 14.9516C63.4338 15.2506 63.5646 15.4973 63.744 15.6917C63.9235 15.8786 64.1739 15.972 64.4954 15.972C64.8243 15.972 65.071 15.8823 65.2355 15.7029C65.4074 15.516 65.4934 15.2506 65.4934 14.9067C65.4934 14.4956 65.3999 14.1666 65.213 13.9199C65.0261 13.6658 64.7907 13.4116 64.5066 13.1574L62.9815 11.8118C62.6825 11.5501 62.4619 11.266 62.3199 10.9595C62.1779 10.6456 62.1068 10.2605 62.1068 9.80453C62.1068 9.13918 62.2975 8.62335 62.6787 8.25704C63.06 7.89072 63.5796 7.70757 64.2374 7.70757C64.5963 7.70757 64.9103 7.75616 65.1794 7.85335C65.456 7.94306 65.684 8.0851 65.8634 8.27947C66.0503 8.47384 66.1961 8.72054 66.3008 9.01957C66.4129 9.31112 66.4877 9.65501 66.525 10.0512L65.4485 10.3428C65.4261 10.0438 65.3812 9.77088 65.314 9.52418C65.2467 9.27001 65.1271 9.06816 64.9551 8.91864C64.7907 8.76165 64.5514 8.68316 64.2374 8.68316C63.9235 8.68316 63.6768 8.76913 63.4973 8.94107C63.3254 9.10554 63.2394 9.35224 63.2394 9.68117C63.2394 9.95778 63.2843 10.1858 63.374 10.3652C63.4712 10.5446 63.6244 10.7278 63.8338 10.9147L65.37 12.2603C65.7139 12.5594 66.0167 12.9182 66.2783 13.3368C66.54 13.748 66.6708 14.2377 66.6708 14.8058C66.6708 15.2544 66.5774 15.6431 66.3905 15.972C66.2036 16.2935 65.9457 16.5402 65.6167 16.7121C65.2953 16.8841 64.9215 16.9701 64.4954 16.9701ZM69.9974 16.8691V8.72801H68.4611V7.78606H72.756V8.72801H71.2646V16.8691H69.9974ZM74.4619 16.8691L76.3907 7.78606H77.613L79.553 16.8691H78.3531L77.9382 14.5816H76.0879L75.6506 16.8691H74.4619ZM76.2561 13.6732H77.77L77.0075 9.58025L76.2561 13.6732Z" fill="#EDEDED"/>
<path d="M49.0237 37.0771L47.5435 27.9941H48.5976L49.5732 34.5204L50.7955 28.0277H51.6926L52.9261 34.5541L53.8793 27.9941H54.9109L53.4531 37.0771H52.5336L51.2665 30.3489L49.9881 37.0771H49.0237ZM57.4395 37.0771V27.9941H58.6842V37.0771H57.4395ZM61.4994 37.0771V27.9941H62.3628L64.942 34.027V27.9941H65.9961V37.0771H65.1887L62.5759 30.876V37.0771H61.4994ZM68.7694 37.0771V27.9941H72.2905V28.936H70.0366V31.9413H71.8644V32.8384H70.0366V36.1688H72.313V37.0771H68.7694Z" fill="#EDEDED"/>
</svg>
