<svg width="125" height="123" viewBox="0 0 125 123" fill="none" xmlns="http://www.w3.org/2000/svg">
<path d="M64.94 15.3294C63.9081 15.2376 63.1 14.894 62.5158 14.2986C61.9417 13.6947 61.6947 12.9419 61.7749 12.0401L62.2491 12.0823C62.1804 12.8539 62.3951 13.4961 62.8929 14.0089C63.3916 14.5124 64.0872 14.8038 64.9797 14.8832C65.7885 14.9551 66.4671 14.8046 67.0157 14.4318C67.5743 14.0504 67.8838 13.5204 67.9442 12.8418C67.964 12.6186 67.9492 12.4159 67.8999 12.2334C67.8598 12.0518 67.8033 11.8969 67.7304 11.7686C67.6676 11.6318 67.5575 11.5002 67.4001 11.3738C67.2426 11.2473 67.1064 11.1462 66.9913 11.0704C66.8763 10.9946 66.7008 10.9134 66.4648 10.8268C66.2297 10.7309 66.0437 10.6628 65.9067 10.6226C65.7799 10.5738 65.5799 10.5045 65.3068 10.4146C65.0244 10.3239 64.8058 10.2529 64.6511 10.2017C64.5057 10.1513 64.3061 10.0773 64.0524 9.97976C63.8088 9.87377 63.616 9.77697 63.4738 9.68937C63.3317 9.60177 63.1735 9.48462 62.9991 9.33793C62.834 9.19207 62.7066 9.04487 62.6167 8.89632C62.537 8.73931 62.4737 8.55564 62.4268 8.34533C62.3807 8.12572 62.3693 7.88576 62.3924 7.62546C62.4619 6.84454 62.8008 6.24688 63.4092 5.83248C64.0177 5.41808 64.8007 5.25346 65.7582 5.33862C66.3625 5.39236 66.8825 5.55105 67.3182 5.81468C67.7632 6.07914 68.093 6.42706 68.3076 6.85843C68.5223 7.28981 68.6056 7.7751 68.5576 8.3143L68.0975 8.27338C68.1578 7.59472 67.9691 7.02978 67.5314 6.57857C67.0944 6.11805 66.4855 5.85307 65.7046 5.78362C64.8958 5.71169 64.2281 5.8444 63.7015 6.18174C63.1841 6.51991 62.8965 7.01438 62.8387 7.66514C62.823 7.84178 62.8267 8.01077 62.8498 8.17212C62.8738 8.32417 62.9268 8.46476 63.0091 8.59389C63.0913 8.72301 63.1701 8.83778 63.2455 8.93818C63.3217 9.0293 63.4351 9.12371 63.5857 9.22144C63.7465 9.31069 63.8801 9.38817 63.9867 9.45387C64.0941 9.51028 64.2519 9.58053 64.4599 9.66462C64.6688 9.73941 64.8277 9.79572 64.9368 9.83353C65.0552 9.87217 65.2332 9.92548 65.4708 9.99346C65.7625 10.085 65.981 10.156 66.1265 10.2064C66.2812 10.2576 66.485 10.3367 66.7379 10.4435C66.9907 10.5503 67.1832 10.6517 67.3152 10.7478C67.4573 10.8354 67.6156 10.9526 67.7899 11.0992C67.9643 11.2459 68.0909 11.4024 68.1698 11.5687C68.2496 11.7258 68.312 11.9187 68.3573 12.1476C68.4126 12.3681 68.4287 12.6084 68.4056 12.8687C68.332 13.6961 67.9708 14.334 67.3218 14.7823C66.6822 15.2314 65.8882 15.4137 64.94 15.3294Z" fill="white"/>
<path d="M75.141 17.455C73.7495 17.0266 72.742 16.2231 72.1185 15.0448C71.5039 13.8692 71.4122 12.5812 71.8434 11.1807C72.2747 9.7803 73.0764 8.7625 74.2485 8.12733C75.4296 7.4949 76.7159 7.39294 78.1074 7.82142C79.1333 8.1373 79.9442 8.67511 80.5404 9.43486C81.1454 10.1974 81.4671 11.0874 81.5053 12.1051L81.0504 11.965C80.9826 11.075 80.6785 10.3026 80.1379 9.64784C79.6062 8.99583 78.8854 8.52975 77.9756 8.24958C76.7179 7.8623 75.551 7.95709 74.4749 8.53395C73.4105 9.10464 72.6805 10.0322 72.285 11.3167C72.0268 12.1552 71.9775 12.9652 72.1373 13.7469C72.3059 14.5312 72.6626 15.2123 73.2073 15.7902C73.7548 16.3592 74.4433 16.7714 75.2728 17.0269C76.2094 17.3153 77.094 17.3289 77.9264 17.0676C78.7677 16.8091 79.4705 16.3028 80.0347 15.5488L80.4896 15.6889C79.8691 16.5623 79.0857 17.156 78.1393 17.4701C77.193 17.7842 76.1936 17.7792 75.141 17.455Z" fill="white"/>
<path d="M90.791 17.0844C90.43 17.7166 89.9179 18.1335 89.2546 18.3351C88.5913 18.5367 87.9083 18.4906 87.2055 18.1968L87.3129 23.1753L86.8509 22.9115L86.7609 17.959L84.147 16.4664L82.0366 20.1623L81.6475 19.9401L86.5072 11.4299L89.5952 13.1933C90.3408 13.6191 90.8272 14.1978 91.0543 14.9293C91.2815 15.6609 91.1937 16.3793 90.791 17.0844ZM86.6741 12.0411L84.3623 16.0896L87.0369 17.6169C87.6853 17.9871 88.3209 18.0975 88.9437 17.948C89.5745 17.8031 90.0589 17.4348 90.3968 16.8431C90.73 16.2596 90.7987 15.6593 90.6029 15.0423C90.4071 14.4254 89.989 13.9341 89.3487 13.5684L86.6741 12.0411Z" fill="white"/>
<path d="M95.5247 28.669C94.1792 28.7179 92.97 28.2434 91.8968 27.2456C90.8237 26.2478 90.2627 25.0761 90.2138 23.7307C90.1713 22.3784 90.6394 21.176 91.6181 20.1234C92.2664 19.4262 93.0083 18.9436 93.8439 18.6754C94.6858 18.4005 95.5398 18.3661 96.4058 18.5724C97.2718 18.7787 98.0568 19.2091 98.7609 19.8637C99.834 20.8616 100.392 22.0366 100.434 23.3889C100.483 24.7343 100.012 25.9402 99.0205 27.0064C98.0354 28.0659 96.8701 28.6201 95.5247 28.669ZM92.2019 26.9175C93.1793 27.8264 94.278 28.2553 95.4979 28.2044C96.7246 28.1598 97.786 27.6556 98.6822 26.6918C99.5847 25.7213 100.014 24.6226 99.969 23.3959C99.9376 22.1687 99.4332 21.1007 98.4558 20.1918C97.4852 19.2893 96.3834 18.8638 95.1503 18.9152C93.9172 18.9667 92.8526 19.4742 91.9565 20.438C91.3718 21.0668 90.9846 21.771 90.795 22.5506C90.6118 23.3233 90.6398 24.0949 90.8792 24.8655C91.1185 25.6361 91.5594 26.3201 92.2019 26.9175Z" fill="white"/>
<path d="M98.2194 33.3099L100.979 37.2226L100.624 37.4727L97.6065 33.1939L105.615 27.5455L105.873 27.9116L98.2194 33.3099Z" fill="white"/>
<path d="M102.25 39.6566L104.342 43.9632L103.952 44.1528L101.664 39.4433L110.478 35.1606L110.674 35.5635L102.25 39.6566Z" fill="white"/>
<path d="M115.964 52.8965L114.966 48.2425L110.859 49.1237L111.781 53.4218L111.357 53.5129L110.435 49.2147L105.822 50.2046L105.728 49.7666L115.31 47.7105L116.402 52.8025L115.964 52.8965Z" fill="white"/>
<path d="M115.894 58.26C116.846 59.212 117.322 60.4206 117.322 61.886C117.322 63.3513 116.846 64.56 115.894 65.512C114.932 66.464 113.733 66.94 112.296 66.94C111.344 66.94 110.485 66.7253 109.72 66.296C108.945 65.8666 108.338 65.2646 107.9 64.49C107.461 63.7153 107.242 62.8473 107.242 61.886C107.242 60.4206 107.722 59.212 108.684 58.26C109.636 57.308 110.84 56.832 112.296 56.832C113.742 56.832 114.942 57.308 115.894 58.26ZM116.874 61.886C116.874 60.5513 116.44 59.4546 115.572 58.596C114.704 57.728 113.612 57.294 112.296 57.294C110.97 57.294 109.874 57.728 109.006 58.596C108.128 59.4546 107.69 60.5513 107.69 61.886C107.69 63.2113 108.128 64.308 109.006 65.176C109.883 66.044 110.98 66.478 112.296 66.478C113.154 66.478 113.934 66.282 114.634 65.89C115.324 65.498 115.87 64.952 116.272 64.252C116.673 63.552 116.874 62.7633 116.874 61.886Z" fill="white"/>
<path d="M111.827 77.8658C111.118 77.6995 110.573 77.3271 110.191 76.7485C109.809 76.17 109.659 75.5021 109.74 74.7447L104.998 76.2637L105.12 75.7458L109.842 74.2509L110.529 71.3204L106.386 70.3484L106.488 69.9122L116.029 72.1505L115.217 75.6125C115.021 76.4485 114.604 77.0794 113.968 77.5052C113.331 77.931 112.617 78.0512 111.827 77.8658ZM115.491 72.4844L110.952 71.4196L110.248 74.4181C110.078 75.1451 110.153 75.7858 110.473 76.3403C110.792 76.9039 111.282 77.2635 111.946 77.4192C112.6 77.5727 113.195 77.4678 113.731 77.1046C114.267 76.7413 114.619 76.2008 114.787 75.483L115.491 72.4844Z" fill="white"/>
<path d="M97.195 90.9234L97.4373 90.53L105.853 93.8712L100.608 86.235L100.696 86.092L109.857 87.3431L103.112 81.3152L103.354 80.9218L110.789 87.5388L110.576 87.8845L101.375 86.592L106.655 94.2503L106.435 94.6079L97.195 90.9234Z" fill="white"/>
<path d="M90.9089 98.6733C90.9578 97.3279 91.5188 96.1562 92.5919 95.1584C93.665 94.1606 94.8743 93.6861 96.2197 93.735C97.5715 93.7908 98.7368 94.345 99.7156 95.3976C100.364 96.0947 100.791 96.8697 100.998 97.7226C101.211 98.5822 101.183 99.4364 100.915 100.285C100.646 101.134 100.16 101.886 99.4559 102.54C98.3828 103.538 97.1704 104.009 95.8186 103.953C94.4731 103.904 93.3047 103.347 92.3132 102.281C91.3281 101.221 90.86 100.019 90.9089 98.6733ZM92.897 95.4865C91.9196 96.3953 91.412 97.46 91.3742 98.6803C91.3296 99.9071 91.7554 101.002 92.6515 101.966C93.554 102.937 94.6186 103.444 95.8454 103.489C97.0716 103.547 98.1734 103.121 99.1508 102.212C100.121 101.31 100.626 100.242 100.664 99.0081C100.702 97.7746 100.273 96.6759 99.3772 95.7122C98.7925 95.0833 98.1183 94.6461 97.3545 94.4004C96.5972 94.1615 95.8255 94.1335 95.0396 94.3162C94.2537 94.499 93.5395 94.8891 92.897 95.4865Z" fill="white"/>
<path d="M83.7164 110.022C83.3531 109.391 83.2519 108.739 83.4128 108.064C83.5738 107.39 83.9585 106.824 84.567 106.366L80.2159 103.944L80.6769 103.679L84.9968 106.102L87.6051 104.6L85.481 100.912L85.8693 100.688L90.7602 109.18L87.6788 110.955C86.9347 111.384 86.1896 111.511 85.4435 111.338C84.6973 111.164 84.1216 110.726 83.7164 110.022ZM90.1484 109.016L87.8217 104.976L85.1527 106.513C84.5057 106.886 84.0895 107.379 83.904 107.992C83.7104 108.609 83.7837 109.213 84.1237 109.804C84.4591 110.386 84.9425 110.749 85.5739 110.891C86.2053 111.034 86.8405 110.921 87.4794 110.553L90.1484 109.016Z" fill="white"/>
<path d="M78.0484 105.219L73.3448 106.824L73.2001 106.4L78.3277 104.65L81.493 113.925L76.5112 115.625L76.3665 115.201L80.9243 113.645L79.6266 109.843L75.4132 111.281L75.273 110.87L79.4864 109.432L78.0484 105.219Z" fill="white"/>
<path d="M66.1122 107.712L66.2157 108.574L65.5485 108.654L65.445 107.792L66.1122 107.712Z" fill="white"/>
<path d="M56.2554 107.705C57.2869 107.801 58.0937 108.147 58.6756 108.745C59.2474 109.351 59.4914 110.105 59.4077 111.006L58.9338 110.962C59.0054 110.191 58.7932 109.548 58.2973 109.033C57.8006 108.528 57.1061 108.234 56.214 108.151C55.4054 108.076 54.7262 108.224 54.1762 108.594C53.6161 108.974 53.3046 109.502 53.2416 110.181C53.2209 110.404 53.2349 110.607 53.2836 110.789C53.3229 110.971 53.3788 111.126 53.4513 111.255C53.5135 111.392 53.6231 111.524 53.7801 111.651C53.937 111.778 54.0729 111.88 54.1876 111.956C54.3024 112.032 54.4776 112.114 54.7132 112.201C54.9479 112.298 55.1337 112.367 55.2705 112.408C55.3972 112.457 55.5969 112.527 55.8696 112.618C56.1517 112.71 56.37 112.782 56.5245 112.834C56.6698 112.885 56.869 112.959 57.1224 113.058C57.3655 113.165 57.558 113.262 57.6998 113.35C57.8416 113.439 57.9994 113.556 58.1732 113.704C58.3377 113.85 58.4646 113.998 58.5538 114.147C58.633 114.304 58.6956 114.488 58.7417 114.698C58.7869 114.918 58.7974 115.158 58.7733 115.418C58.7008 116.199 58.3596 116.795 57.7495 117.208C57.1395 117.62 56.3559 117.781 55.3987 117.692C54.7946 117.636 54.2752 117.476 53.8405 117.21C53.3966 116.944 53.0681 116.595 52.8551 116.163C52.6422 115.731 52.5607 115.245 52.6107 114.706L53.0708 114.749C53.0078 115.427 53.1943 115.993 53.6303 116.446C54.0655 116.908 54.6734 117.175 55.454 117.248C56.2625 117.323 56.9308 117.192 57.4587 116.857C57.9773 116.521 58.2668 116.028 58.3272 115.377C58.3436 115.201 58.3405 115.032 58.318 114.87C58.2946 114.718 58.2421 114.577 58.1603 114.448C58.0786 114.318 58.0003 114.203 57.9252 114.102C57.8494 114.011 57.7363 113.916 57.5861 113.818C57.4257 113.728 57.2923 113.65 57.186 113.584C57.0788 113.527 56.9213 113.456 56.7136 113.371C56.5051 113.296 56.3463 113.239 56.2374 113.201C56.1191 113.162 55.9414 113.108 55.7041 113.039C55.4127 112.946 55.1944 112.874 55.0492 112.823C54.8946 112.771 54.6911 112.692 54.4387 112.584C54.1862 112.476 53.9942 112.374 53.8625 112.277C53.7208 112.189 53.563 112.071 53.3892 111.924C53.2154 111.777 53.0893 111.62 53.0111 111.453C52.9319 111.296 52.8702 111.102 52.8258 110.873C52.7713 110.653 52.7562 110.412 52.7803 110.152C52.8571 109.325 53.2208 108.689 53.8714 108.243C54.5128 107.796 55.3074 107.617 56.2554 107.705Z" fill="white"/>
<path d="M46.1128 105.557C47.5027 105.991 48.5072 106.798 49.1262 107.979C49.7364 109.157 49.8232 110.445 49.3867 111.844C48.9501 113.243 48.1446 114.258 46.97 114.888C45.7866 115.516 44.4999 115.613 43.11 115.18C42.0854 114.86 41.2765 114.319 40.6832 113.557C40.081 112.792 39.7627 111.901 39.7284 110.883L40.1828 111.025C40.2471 111.915 40.5484 112.689 41.0865 113.346C41.6157 114 42.3347 114.468 43.2435 114.752C44.4997 115.144 45.667 115.054 46.7452 114.481C47.8118 113.914 48.5453 112.989 48.9456 111.706C49.207 110.869 49.2593 110.059 49.1025 109.277C48.9369 108.492 48.5828 107.809 48.0402 107.229C47.4949 106.658 46.808 106.244 45.9794 105.985C45.0439 105.693 44.1594 105.676 43.326 105.934C42.4837 106.19 41.779 106.693 41.212 107.445L40.7576 107.303C41.3814 106.432 42.167 105.841 43.1146 105.531C44.0621 105.22 45.0615 105.229 46.1128 105.557Z" fill="white"/>
<path d="M30.299 105.773C30.6647 105.144 31.1799 104.731 31.8446 104.534C32.5094 104.337 33.192 104.388 33.8926 104.687L33.8219 99.7082L34.282 99.9754L34.3355 104.928L36.9383 106.44L39.0759 102.76L39.4633 102.985L34.5411 111.459L31.4662 109.673C30.7237 109.242 30.2416 108.66 30.0198 107.926C29.7981 107.193 29.8912 106.475 30.299 105.773ZM34.3787 110.847L36.7203 106.816L34.057 105.269C33.4113 104.894 32.7766 104.778 32.1527 104.923C31.5208 105.064 31.0337 105.428 30.6915 106.017C30.354 106.599 30.2808 107.198 30.4721 107.817C30.6634 108.435 31.0778 108.929 31.7154 109.3L34.3787 110.847Z" fill="white"/>
<path d="M25.8249 94.3536C27.1706 94.3096 28.3781 94.7884 29.4476 95.7901C30.517 96.7919 31.0738 97.9655 31.1178 99.3111C31.1554 100.664 30.683 101.864 29.7004 102.913C29.0496 103.608 28.3059 104.088 27.4694 104.353C26.6265 104.625 25.7724 104.656 24.9071 104.447C24.0419 104.237 23.2584 103.804 22.5568 103.147C21.4873 102.145 20.9338 100.968 20.8961 99.6158C20.8521 98.2702 21.3278 97.0661 22.3231 96.0034C23.3121 94.9476 24.4793 94.3976 25.8249 94.3536ZM29.1413 96.1171C28.1672 95.2047 27.0701 94.7718 25.8501 94.8183C24.6232 94.8584 23.5599 95.3587 22.6603 96.3192C21.7543 97.2865 21.3213 98.3836 21.3615 99.6105C21.3884 100.838 21.8889 101.908 22.863 102.82C23.8303 103.726 24.9306 104.156 26.1639 104.109C27.3971 104.062 28.4636 103.558 29.3632 102.597C29.9502 101.971 30.3399 101.268 30.5323 100.489C30.7184 99.7171 30.6931 98.9453 30.4566 98.1739C30.2201 97.4025 29.7816 96.7169 29.1413 96.1171Z" fill="white"/>
<path d="M23.02 89.5835L20.2891 85.6507L20.6456 85.4032L23.632 89.7039L15.5825 95.2936L15.3269 94.9256L23.02 89.5835Z" fill="white"/>
<path d="M19.0987 83.3761L17.0223 79.0617L17.4134 78.8735L19.684 83.5915L10.8535 87.8415L10.6592 87.4378L19.0987 83.3761Z" fill="white"/>
<path d="M5.41469 70.1737L6.39563 74.8316L10.5055 73.966L9.59955 69.6644L10.0242 69.5749L10.9302 73.8766L15.5469 72.9043L15.6392 73.3427L6.04958 75.3623L4.97631 70.2661L5.41469 70.1737Z" fill="white"/>
<path d="M12.9187 58.0742C13.8633 59.0335 14.33 60.2458 14.3187 61.7111C14.3073 63.1764 13.822 64.3814 12.8627 65.326C11.8941 66.2705 10.6911 66.7373 9.25379 66.7262C8.30182 66.7188 7.44483 66.4975 6.68284 66.0623C5.91151 65.627 5.30951 65.0203 4.87683 64.2423C4.44416 63.4643 4.23154 62.5946 4.23896 61.6333C4.25027 60.168 4.74025 58.9631 5.70891 58.0185C6.66823 57.0739 7.87587 56.6072 9.33183 56.6185C10.7784 56.6296 11.9741 57.1149 12.9187 58.0742ZM13.8707 61.7077C13.881 60.373 13.4555 59.2731 12.5941 58.4077C11.7328 57.533 10.6442 57.0906 9.32826 57.0805C8.00297 57.0702 6.90298 57.4957 6.02831 58.357C5.14437 59.2089 4.69725 60.3021 4.68694 61.6368C4.67671 62.9621 5.1069 64.0621 5.97751 64.9368C6.84811 65.8116 7.9414 66.254 9.25736 66.2642C10.116 66.2708 10.8968 66.0808 11.5998 65.6943C12.2935 65.3076 12.8437 64.7658 13.2504 64.0689C13.6571 63.3721 13.8639 62.585 13.8707 61.7077Z" fill="white"/>
<path d="M9.53904 45.2405C10.2472 45.4094 10.7911 45.7839 11.1709 46.3639C11.5506 46.9439 11.6981 47.6124 11.6135 48.3694L16.3615 46.8685L16.238 47.3859L11.5101 48.8629L10.8114 51.7907L14.9512 52.7785L14.8472 53.2143L5.31487 50.9397L6.14024 47.4808C6.33954 46.6455 6.75838 46.0162 7.39675 45.5928C8.03512 45.1695 8.74922 45.052 9.53904 45.2405ZM5.85462 50.6079L10.3893 51.6899L11.1042 48.6941C11.2775 47.9678 11.205 47.3268 10.8866 46.771C10.5704 46.2062 10.0809 45.8447 9.41819 45.6866C8.76455 45.5306 8.16914 45.6332 7.63197 45.9944C7.0948 46.3556 6.74064 46.8948 6.5695 47.612L5.85462 50.6079Z" fill="white"/>
<path d="M24.3368 31.9355L24.0917 32.3271L15.7007 28.9241L20.8891 36.5987L20.8 36.7411L11.6491 35.4226L18.3494 41.5L18.1043 41.8916L10.7188 35.2201L10.9342 34.876L20.1251 36.236L14.9011 28.5392L15.1239 28.1832L24.3368 31.9355Z" fill="white"/>
<path d="M30.4921 24.3564C30.4383 25.7016 29.8731 26.8712 28.7963 27.8651C27.7196 28.8591 26.5086 29.3291 25.1634 29.2753C23.8118 29.2147 22.6485 28.6563 21.6736 27.6001C21.0279 26.9006 20.6032 26.124 20.3995 25.2705C20.1896 24.41 20.2204 23.5559 20.4921 22.7081C20.7638 21.8604 21.2528 21.1104 21.9592 20.4584C23.0359 19.4645 24.2501 18.9978 25.6017 19.0585C26.9469 19.1123 28.1133 19.6741 29.1009 20.744C30.0822 21.807 30.5459 23.0111 30.4921 24.3564ZM28.4925 27.536C29.4732 26.6307 29.9846 25.5679 30.0268 24.3477C30.0759 23.1211 29.6541 22.0244 28.7615 21.0574C27.8625 20.0835 26.7997 19.5721 25.5732 19.523C24.3472 19.4608 23.2438 19.8823 22.2631 20.7876C21.2892 21.6865 20.7809 22.7527 20.7382 23.9861C20.6955 25.2195 21.1204 26.3197 22.0131 27.2867C22.5955 27.9177 23.2681 28.3574 24.031 28.6059C24.7875 28.8475 25.559 28.8783 26.3456 28.6984C27.1322 28.5185 27.8478 28.131 28.4925 27.536Z" fill="white"/>
<path d="M37.8808 12.9283C38.2395 13.5618 38.3359 14.2151 38.17 14.8882C38.004 15.5613 37.6151 16.1247 37.0032 16.5784L41.3365 19.0319L40.8735 19.2941L36.5716 16.8389L33.9522 18.3218L36.0491 22.0255L35.6592 22.2462L30.831 13.7181L33.9254 11.9661C34.6727 11.5431 35.4187 11.421 36.1635 11.6C36.9083 11.7789 37.4808 12.2217 37.8808 12.9283ZM31.4415 13.8872L33.7384 17.9442L36.4186 16.4267C37.0684 16.0588 37.4883 15.5691 37.6783 14.9574C37.8764 14.3412 37.8076 13.7366 37.4719 13.1437C37.1408 12.5589 36.6601 12.1929 36.0298 12.0457C35.3994 11.8985 34.7634 12.0065 34.1218 12.3698L31.4415 13.8872Z" fill="white"/>
<path d="M43.4176 17.7868L48.1272 16.1993L48.2703 16.6238L43.1362 18.3545L40.0058 9.06789L44.994 7.38642L45.1371 7.81095L40.5734 9.34931L41.8569 13.1568L46.0756 11.7347L46.2143 12.146L41.9955 13.5681L43.4176 17.7868Z" fill="white"/>
<path d="M55.5866 15.2998L55.4898 14.4372L56.1576 14.3623L56.2544 15.2249L55.5866 15.2998Z" fill="white"/>
</svg>
