<svg width="27" height="27" viewBox="0 0 27 27" fill="none" xmlns="http://www.w3.org/2000/svg">
<path d="M26.7078 25.2928L20.449 19.0353C22.2631 16.8574 23.1677 14.064 22.9746 11.2362C22.7815 8.40838 21.5057 5.76386 19.4125 3.85275C17.3193 1.94164 14.5698 0.911103 11.7362 0.975503C8.9025 1.0399 6.20274 2.19429 4.19851 4.19851C2.19429 6.20274 1.0399 8.9025 0.975503 11.7362C0.911103 14.5698 1.94164 17.3193 3.85275 19.4125C5.76386 21.5057 8.40838 22.7815 11.2362 22.9746C14.064 23.1677 16.8574 22.2631 19.0353 20.449L25.2928 26.7078C25.3857 26.8007 25.496 26.8744 25.6174 26.9247C25.7388 26.975 25.8689 27.0008 26.0003 27.0008C26.1317 27.0008 26.2618 26.975 26.3832 26.9247C26.5046 26.8744 26.6149 26.8007 26.7078 26.7078C26.8007 26.6149 26.8744 26.5046 26.9247 26.3832C26.975 26.2618 27.0008 26.1317 27.0008 26.0003C27.0008 25.8689 26.975 25.7388 26.9247 25.6174C26.8744 25.496 26.8007 25.3857 26.7078 25.2928ZM3.00029 12.0003C3.00029 10.2203 3.52813 8.4802 4.51706 7.00015C5.50599 5.52011 6.9116 4.36656 8.55614 3.68537C10.2007 3.00418 12.0103 2.82595 13.7561 3.17322C15.5019 3.52049 17.1056 4.37765 18.3642 5.63632C19.6229 6.895 20.4801 8.49864 20.8274 10.2445C21.1746 11.9903 20.9964 13.7999 20.3152 15.4444C19.634 17.089 18.4805 18.4946 17.0004 19.4835C15.5204 20.4724 13.7803 21.0003 12.0003 21.0003C9.61415 20.9976 7.3265 20.0486 5.63925 18.3613C3.95199 16.6741 3.00293 14.3864 3.00029 12.0003Z" fill="#595959"/>
</svg>
